<?xml version="1.0" standalone="no"?>
<!DOCTYPE svg PUBLIC "-//W3C//DTD SVG 20010904//EN"
 "http://www.w3.org/TR/2001/REC-SVG-20010904/DTD/svg10.dtd">
<svg version="1.0" xmlns="http://www.w3.org/2000/svg"
 width="1920.000000pt" height="1080.000000pt" viewBox="0 0 1920.000000 1080.000000"
 preserveAspectRatio="xMidYMid meet">

<g transform="translate(0.000000,1080.000000) scale(0.100000,-0.100000)"
fill="#000000" stroke="none">
<path d="M0 9810 l0 -990 9600 0 9600 0 0 990 0 990 -9600 0 -9600 0 0 -990z
m7570 270 l0 -100 75 0 75 0 0 -40 0 -40 -125 0 -125 0 0 100 0 100 -25 0
c-22 0 -25 4 -25 40 l0 40 75 0 75 0 0 -100z m240 40 l0 -60 -30 0 -30 0 0 60
0 60 30 0 30 0 0 -60z m140 -80 l0 -140 -50 0 -50 0 0 140 0 140 50 0 50 0 0
-140z m149 93 l40 -48 1 48 0 47 156 0 c175 0 213 -10 241 -63 20 -40 20 -115
-2 -156 -26 -52 -63 -61 -239 -61 l-154 0 -41 48 -40 47 -1 -47 0 -48 -50 0
-50 0 0 140 0 140 49 0 c46 0 51 -3 90 -47z m838 6 l27 -41 16 23 c38 58 43
60 98 57 l53 -3 -46 -62 c-25 -35 -45 -67 -45 -73 0 -6 20 -38 45 -73 l46 -62
-53 -3 c-55 -3 -60 -1 -98 57 l-16 23 -27 -41 -27 -41 -170 0 -170 0 0 140 0
140 170 0 170 0 27 -41z m853 1 l0 -40 -45 0 -45 0 0 -100 0 -100 -50 0 -50 0
0 100 0 100 -80 0 c-44 0 -80 -4 -80 -9 0 -6 12 -23 26 -38 48 -51 56 -101 24
-133 -18 -18 -33 -20 -155 -20 l-135 0 0 40 0 40 90 0 c50 0 90 2 90 5 0 3
-16 25 -35 51 -38 50 -44 87 -19 122 15 22 19 22 240 22 l224 0 0 -40z m256
-85 l43 -120 0 123 1 122 111 0 c109 0 111 0 140 -29 38 -38 39 -83 3 -116
-15 -14 -34 -25 -42 -25 -12 0 -12 -3 -2 -15 8 -9 30 -15 56 -15 l44 0 0 -40
0 -40 -57 0 c-55 0 -59 2 -105 47 l-48 47 0 -47 0 -47 -100 0 c-98 0 -101 1
-110 25 -8 21 -16 25 -50 25 -34 0 -42 -4 -50 -25 -8 -22 -15 -25 -61 -25 -37
0 -50 4 -47 13 3 6 24 70 47 140 l43 128 71 -3 71 -3 42 -120z m624 71 c18
-54 22 -53 39 12 12 41 12 42 56 42 l43 0 19 -57 19 -56 13 56 12 57 45 0 c24
0 44 -5 44 -11 0 -5 -14 -64 -30 -131 -17 -66 -29 -122 -27 -124 1 -2 23 57
47 131 l44 135 72 0 72 0 44 -127 43 -128 3 128 3 127 100 0 c111 0 155 -14
165 -54 11 -45 0 -80 -32 -101 -49 -33 -33 -45 62 -45 46 0 84 4 84 8 0 5 -12
19 -26 33 -39 36 -56 76 -49 110 9 41 31 49 129 49 l86 0 0 -40 0 -40 -45 0
c-50 0 -55 -8 -24 -36 51 -46 65 -122 27 -148 -18 -13 -52 -16 -159 -16 l-137
0 -41 46 -41 47 0 -47 0 -46 -105 0 c-103 0 -105 0 -111 25 -5 22 -12 25 -49
25 -37 0 -44 -3 -49 -25 -6 -25 -8 -25 -110 -25 l-104 0 -19 57 -19 56 -13
-56 -12 -57 -48 0 -48 0 -32 100 c-31 97 -33 100 -61 100 -28 0 -30 2 -30 40
l0 41 67 -3 66 -3 17 -49z m-2060 -444 l-35 -17 98 -3 c89 -2 97 -4 97 -22 0
-16 -7 -20 -35 -20 -19 0 -35 -4 -35 -10 0 -5 9 -10 20 -10 11 0 20 -4 20 -10
0 -5 -9 -10 -20 -10 -11 0 -20 -4 -20 -10 0 -5 18 -10 40 -10 33 0 40 -3 40
-20 0 -19 -7 -20 -157 -20 -132 0 -159 3 -175 17 -17 15 -18 15 -18 0 0 -14
-10 -17 -52 -17 -34 0 -58 6 -70 17 -17 15 -18 15 -18 0 0 -12 -9 -17 -30 -17
-23 0 -30 4 -30 20 l0 20 -20 -20 c-26 -26 -89 -27 -120 -2 -23 18 -24 18 -42
0 -13 -13 -33 -18 -78 -18 l-60 0 0 70 0 70 60 0 c45 0 65 -5 78 -18 18 -18
19 -18 42 0 31 25 94 24 120 -2 l20 -20 0 20 c0 29 54 28 74 -2 l16 -22 0 22
c0 20 5 22 54 22 44 0 56 -4 69 -22 l16 -23 0 23 c1 20 6 22 54 22 41 0 55 4
65 20 7 12 23 20 40 20 27 -1 27 -1 -8 -18z m-2050 -73 l0 -50 37 3 c35 3 38
6 52 51 15 48 15 48 55 45 39 -3 39 -3 62 -70 l23 -68 -29 0 c-16 0 -32 5 -35
10 -3 6 -15 10 -26 10 -10 0 -19 -4 -19 -10 0 -6 -35 -10 -85 -10 l-85 0 0 50
c0 38 -4 50 -15 50 -8 0 -15 9 -15 20 0 17 7 20 40 20 l40 0 0 -51z m464 29
c8 -13 8 -23 -1 -37 -10 -15 -9 -20 1 -24 9 -4 18 9 26 39 13 45 13 45 53 42
39 -3 42 -5 56 -50 12 -40 19 -48 38 -48 l24 0 -22 31 c-38 53 -21 64 110 67
106 3 111 2 111 -18 0 -16 -6 -20 -35 -20 -19 0 -35 -4 -35 -10 0 -5 9 -10 20
-10 11 0 20 -4 20 -10 0 -5 -9 -10 -20 -10 -11 0 -20 -4 -20 -10 0 -5 18 -10
40 -10 33 0 40 -3 40 -20 0 -18 -7 -20 -70 -20 -48 0 -70 4 -70 12 0 9 -3 9
-12 0 -15 -15 -144 -16 -153 -2 -8 13 -45 13 -45 1 0 -5 -45 -10 -100 -10
l-100 -1 0 70 0 71 66 -3 c51 -2 70 -7 78 -20z m636 2 l20 -20 0 20 c0 18 7
20 65 20 58 0 65 -2 65 -20 0 -17 -7 -20 -40 -20 -22 0 -40 -4 -40 -10 0 -5
11 -10 25 -10 14 0 25 -4 25 -10 0 -5 -11 -10 -25 -10 -14 0 -25 -4 -25 -10 0
-5 20 -10 45 -10 38 0 45 -3 45 -20 0 -18 -7 -20 -70 -20 -63 0 -70 2 -70 20
l0 20 -20 -20 c-16 -16 -33 -20 -80 -20 l-60 0 0 70 0 70 60 0 c47 0 64 -4 80
-20z m1260 -30 l0 -50 39 0 c38 0 40 1 56 50 16 48 18 50 55 50 38 0 38 0 59
-62 27 -79 27 -78 -9 -78 -16 0 -30 5 -30 10 0 6 -9 10 -19 10 -11 0 -23 -4
-26 -10 -3 -5 -44 -10 -91 -10 l-84 0 0 70 c0 68 1 70 25 70 23 0 25 -3 25
-50z m448 38 c7 -7 12 -21 12 -33 0 -29 -19 -45 -52 -45 -23 0 -28 -4 -28 -25
0 -21 -5 -25 -30 -25 l-30 0 0 70 0 70 58 0 c32 0 63 -5 70 -12z m72 -38 l0
-50 35 0 35 0 0 50 c0 46 2 50 24 50 23 0 25 -4 28 -52 2 -39 7 -53 18 -53 11
0 16 14 18 52 l3 51 84 1 c78 1 85 -1 85 -19 0 -13 -7 -20 -20 -20 -24 0 -26
-13 -4 -30 8 -8 14 -25 12 -39 -3 -24 -7 -26 -55 -29 -34 -2 -53 1 -53 8 0 7
-6 8 -19 0 -11 -5 -32 -10 -46 -10 -14 0 -35 5 -46 10 -13 7 -19 7 -19 0 0 -6
-27 -10 -65 -10 l-65 0 0 70 c0 68 1 70 25 70 23 0 25 -3 25 -50z m470 0 l0
-50 39 0 c35 0 38 2 34 24 -12 62 99 104 147 56 l20 -20 0 20 c0 15 7 20 25
20 24 0 25 -2 25 -70 0 -68 -1 -70 -25 -70 -18 0 -25 5 -25 20 l0 20 -20 -20
c-24 -24 -86 -27 -118 -4 -20 14 -22 14 -22 0 0 -13 -13 -16 -65 -16 l-65 0 0
70 c0 68 1 70 25 70 23 0 25 -3 25 -50z m362 33 c17 -15 18 -15 18 0 0 15 13
17 95 17 88 0 95 -1 95 -20 0 -15 -7 -20 -25 -20 -23 0 -25 -3 -25 -50 0 -47
-2 -50 -25 -50 -23 0 -25 3 -25 50 0 38 -4 50 -15 50 -11 0 -15 -12 -15 -50 0
-49 -1 -50 -29 -50 -20 0 -35 8 -45 22 l-16 22 0 -22 c0 -17 -6 -22 -25 -22
-24 0 -25 2 -25 70 0 65 1 70 22 70 12 0 30 -7 40 -17z m331 -25 l15 -43 1 43
1 42 56 0 c46 0 59 -4 75 -22 l18 -23 1 23 c0 21 3 22 90 22 83 0 90 -1 90
-20 0 -17 -7 -20 -40 -20 -22 0 -40 -4 -40 -10 0 -5 11 -10 25 -10 14 0 25 -4
25 -10 0 -5 -11 -10 -25 -10 -14 0 -25 -4 -25 -10 0 -5 20 -10 45 -10 38 0 45
-3 45 -20 0 -19 -7 -20 -99 -20 -91 0 -100 2 -114 23 l-16 22 0 -22 c-1 -22
-5 -23 -81 -23 -47 0 -80 4 -80 10 0 6 -9 10 -19 10 -11 0 -23 -4 -26 -10 -3
-5 -19 -10 -34 -10 l-28 0 25 70 c25 70 25 70 62 70 36 0 39 -3 53 -42z m579
25 c9 -10 18 -25 21 -33 3 -8 6 0 6 18 l1 32 60 0 c53 0 60 -2 60 -20 0 -16
-7 -20 -35 -20 -19 0 -35 -4 -35 -10 0 -5 11 -10 25 -10 14 0 25 -4 25 -10 0
-5 -11 -10 -25 -10 -14 0 -25 -4 -25 -10 0 -5 20 -10 45 -10 38 0 45 -3 45
-20 0 -18 -7 -20 -70 -20 l-70 0 -1 33 c0 17 -3 25 -6 17 -15 -40 -35 -50
-100 -50 l-63 0 0 70 0 70 63 0 c48 0 68 -4 79 -17z m308 -34 l0 -50 37 3 c35
3 38 6 52 51 15 48 15 48 55 45 39 -3 39 -3 62 -70 l23 -68 -29 0 c-16 0 -32
5 -35 10 -3 6 -15 10 -26 10 -10 0 -19 -4 -19 -10 0 -6 -37 -10 -90 -10 l-90
0 0 70 0 70 30 0 c29 0 30 -1 30 -51z m460 31 c0 -17 -7 -20 -39 -20 -46 0
-70 -22 -51 -45 7 -8 19 -15 26 -15 8 0 14 7 14 15 0 10 10 15 29 15 23 0 30
6 37 33 9 28 14 32 50 35 40 3 40 3 56 -45 l16 -48 1 48 c1 45 2 47 31 47 29
0 30 -1 30 -51 l0 -50 37 3 c35 3 38 6 52 51 15 48 15 48 54 45 37 -3 41 -6
54 -43 25 -75 23 -72 39 -51 19 26 18 30 -12 65 l-26 31 36 0 c23 0 39 -6 45
-17 10 -17 12 -17 25 0 9 12 27 17 60 17 l46 0 0 -70 0 -70 -46 0 c-33 0 -51
5 -60 18 -13 16 -15 16 -25 0 -7 -13 -23 -18 -59 -18 -27 0 -52 5 -55 10 -3 6
-15 10 -26 10 -10 0 -19 -4 -19 -10 0 -6 -45 -10 -115 -10 -70 0 -115 4 -115
10 0 6 -9 10 -19 10 -11 0 -23 -4 -26 -10 -3 -5 -40 -10 -81 -10 -85 0 -114
18 -114 70 0 48 30 70 95 70 48 0 55 -2 55 -20z m750 0 c0 -17 -7 -20 -40 -20
-22 0 -40 -4 -40 -10 0 -5 11 -10 25 -10 14 0 25 -4 25 -10 0 -5 -11 -10 -25
-10 -14 0 -25 -4 -25 -10 0 -5 20 -10 45 -10 38 0 45 -3 45 -20 0 -18 -7 -20
-70 -20 l-70 0 0 70 0 70 65 0 c58 0 65 -2 65 -20z"/>
<path d="M8340 10040 l0 -70 33 0 c50 0 70 19 70 70 0 51 -20 70 -70 70 l-33
0 0 -70z"/>
<path d="M8810 10127 c0 -27 0 -27 -75 -27 -60 0 -75 -3 -75 -15 0 -11 12 -15
50 -15 47 0 50 -2 50 -25 0 -23 -3 -25 -50 -25 -43 0 -50 -3 -50 -19 0 -18 9
-20 95 -23 93 -3 95 -3 115 24 26 36 26 43 -12 92 -48 62 -48 62 -48 33z"/>
<path d="M9924 10094 c-4 -10 -13 -34 -20 -51 l-13 -33 39 0 39 0 -16 48 c-20
58 -21 60 -29 36z"/>
<path d="M10190 10086 c0 -24 3 -26 46 -26 41 0 45 2 42 23 -2 18 -10 23 -45
25 -40 3 -43 1 -43 -22z"/>
<path d="M11051 10074 c-8 -22 -16 -45 -18 -51 -4 -9 6 -13 32 -13 40 0 40 2
11 74 l-11 28 -14 -38z"/>
<path d="M11330 10085 c0 -25 3 -26 43 -23 34 2 42 7 42 23 0 16 -8 21 -42 23
-40 3 -43 2 -43 -23z"/>
<path d="M7960 9590 c0 -27 3 -31 23 -28 16 2 22 10 22 28 0 18 -6 26 -22 28
-20 3 -23 -1 -23 -28z"/>
<path d="M8124 9605 c-9 -23 3 -45 25 -45 10 0 21 7 25 15 8 23 -4 45 -25 45
-11 0 -22 -7 -25 -15z"/>
<path d="M8560 9610 c0 -5 11 -10 25 -10 14 0 25 -4 25 -10 0 -5 -11 -10 -25
-10 -14 0 -25 -4 -25 -10 0 -5 18 -10 40 -10 38 0 40 2 40 30 0 28 -2 30 -40
30 -22 0 -40 -4 -40 -10z"/>
<path d="M6697 9595 c-8 -20 -4 -29 11 -24 5 2 6 13 2 23 -6 19 -7 19 -13 1z"/>
<path d="M6930 9615 c0 -8 9 -15 20 -15 11 0 20 7 20 15 0 8 -9 15 -20 15 -11
0 -20 -7 -20 -15z"/>
<path d="M7266 9598 c10 -13 20 -25 21 -27 2 -2 3 8 3 22 0 21 -5 27 -22 27
-21 0 -21 0 -2 -22z"/>
<path d="M7097 9595 c-8 -20 -4 -29 11 -24 5 2 6 13 2 23 -6 19 -7 19 -13 1z"/>
<path d="M6930 9560 c0 -5 9 -10 19 -10 11 0 23 5 26 10 4 6 -5 10 -19 10 -14
0 -26 -4 -26 -10z"/>
<path d="M7570 9590 c0 -27 3 -31 23 -28 16 2 22 10 22 28 0 18 -6 26 -22 28
-20 3 -23 -1 -23 -28z"/>
<path d="M9056 9585 c-3 -9 0 -15 9 -15 8 0 15 7 15 15 0 8 -4 15 -9 15 -5 0
-11 -7 -15 -15z"/>
<path d="M9300 9610 c0 -5 7 -10 15 -10 8 0 15 5 15 10 0 6 -7 10 -15 10 -8 0
-15 -4 -15 -10z"/>
<path d="M9657 9580 c-4 -16 0 -20 20 -20 25 0 26 0 8 20 -10 11 -19 20 -20
20 -2 0 -5 -9 -8 -20z"/>
<path d="M10044 9605 c-9 -23 3 -45 25 -45 10 0 21 7 25 15 8 23 -4 45 -25 45
-11 0 -22 -7 -25 -15z"/>
<path d="M10536 9585 c-3 -9 0 -15 9 -15 8 0 15 7 15 15 0 8 -4 15 -9 15 -5 0
-11 -7 -15 -15z"/>
<path d="M11100 9590 c0 -32 19 -40 39 -16 15 18 3 46 -20 46 -14 0 -19 -7
-19 -30z"/>
<path d="M11627 9595 c-8 -20 -4 -29 11 -24 5 2 6 13 2 23 -6 19 -7 19 -13 1z"/>
<path d="M12492 9610 c-10 -17 -10 -25 3 -43 14 -21 15 -20 15 21 0 23 -1 42
-3 42 -1 0 -8 -9 -15 -20z"/>
<path d="M12007 9591 c-3 -14 0 -21 9 -21 16 0 18 9 5 28 -6 10 -10 9 -14 -7z"/>
<path d="M12287 9595 c-8 -20 -4 -29 11 -24 5 2 6 13 2 23 -6 19 -7 19 -13 1z"/>
<path d="M150 8645 c0 -8 7 -15 15 -15 18 0 19 -2 1 -45 -15 -34 -15 -35 10
-35 13 0 24 5 24 10 0 6 9 10 20 10 11 0 20 -4 20 -10 0 -5 11 -10 24 -10 l24
0 -21 55 -20 55 -48 0 c-37 0 -49 -4 -49 -15z m80 -40 c0 -8 -4 -15 -10 -15
-5 0 -10 7 -10 15 0 8 5 15 10 15 6 0 10 -7 10 -15z"/>
<path d="M297 8642 c-39 -43 -4 -92 65 -92 52 0 53 28 1 32 -30 2 -38 7 -38
23 0 16 8 21 38 23 34 3 37 1 37 -22 0 -46 22 -56 126 -56 52 0 94 4 94 9 0 5
13 4 29 -2 22 -8 36 -8 55 1 16 7 26 8 26 2 0 -6 9 -10 20 -10 18 0 20 7 20
55 l0 55 -34 0 c-33 0 -35 -2 -38 -37 -2 -27 -8 -39 -20 -41 -15 -3 -18 4 -18
37 0 34 -3 41 -20 41 -17 0 -20 -7 -20 -40 0 -39 -1 -40 -35 -40 -19 0 -35 5
-35 10 0 6 9 10 20 10 27 0 25 18 -2 23 -17 3 -14 5 10 6 21 1 32 6 32 16 0
12 -16 15 -86 15 -47 0 -94 -5 -105 -10 -13 -7 -19 -7 -19 0 0 18 -85 12 -103
-8z m223 -37 c0 -22 -4 -25 -40 -25 -32 0 -40 4 -40 18 0 26 9 32 47 32 29 0
33 -3 33 -25z"/>
<path d="M780 8605 l0 -55 50 0 c38 0 50 4 50 15 0 10 -10 15 -30 15 -28 0
-30 2 -30 40 0 33 -3 40 -20 40 -18 0 -20 -7 -20 -55z"/>
<path d="M1200 8606 c0 -49 2 -56 20 -56 12 0 20 7 20 17 0 15 1 15 18 0 14
-13 38 -17 95 -17 47 0 77 4 77 10 0 7 6 7 19 0 11 -5 45 -10 75 -10 49 0 56
2 56 20 0 11 7 20 15 20 8 0 15 -9 15 -20 0 -19 7 -20 95 -20 82 0 95 2 95 17
0 15 1 15 18 0 23 -21 62 -22 62 -2 0 9 -9 15 -22 15 -21 0 -21 0 -2 21 28 31
8 53 -50 57 l-46 3 0 -40 c0 -40 -1 -41 -35 -41 -19 0 -35 5 -35 10 0 6 9 10
20 10 27 0 25 18 -2 23 -17 3 -14 5 10 6 21 1 32 6 32 16 0 12 -14 15 -70 15
-63 0 -70 -2 -70 -20 0 -11 -7 -20 -15 -20 -8 0 -15 9 -15 20 0 18 -7 20 -58
20 -67 0 -94 -15 -94 -53 0 -24 -4 -27 -34 -27 -19 0 -34 5 -34 10 0 6 9 10
20 10 27 0 25 18 -2 23 -17 3 -14 5 10 6 21 1 32 6 32 16 0 11 -12 15 -50 15
l-50 0 0 -40 c0 -34 -3 -40 -22 -40 -21 0 -21 0 -2 21 28 31 8 53 -50 57 l-46
3 0 -55z m80 14 c0 -5 -9 -10 -20 -10 -11 0 -20 5 -20 10 0 6 9 10 20 10 11 0
20 -4 20 -10z m260 -15 c0 -22 -4 -25 -35 -25 -31 0 -35 3 -35 25 0 22 4 25
35 25 31 0 35 -3 35 -25z m300 15 c0 -5 -9 -10 -20 -10 -11 0 -20 5 -20 10 0
6 9 10 20 10 11 0 20 -4 20 -10z"/>
<path d="M1898 8649 c-22 -13 -24 -62 -2 -83 21 -21 94 -22 94 -1 0 11 -11 15
-36 15 -31 0 -35 3 -32 23 2 17 11 23 36 25 20 2 32 9 32 18 0 17 -65 19 -92
3z"/>
<path d="M2000 8605 c0 -42 3 -55 15 -55 8 0 15 9 15 20 0 11 7 20 15 20 8 0
15 -9 15 -20 0 -13 7 -20 20 -20 18 0 20 7 20 55 0 48 -2 55 -20 55 -13 0 -20
-7 -20 -20 0 -11 -7 -20 -15 -20 -8 0 -15 9 -15 20 0 11 -7 20 -15 20 -12 0
-15 -13 -15 -55z"/>
<path d="M2110 8605 l0 -55 50 0 c38 0 50 4 50 15 0 10 -11 15 -35 15 -19 0
-35 5 -35 10 0 6 9 10 20 10 27 0 25 18 -2 23 -17 3 -14 5 10 6 21 1 32 6 32
16 0 11 -12 15 -45 15 l-45 0 0 -55z"/>
<path d="M3230 7805 c0 -31 3 -35 25 -35 14 0 25 -1 25 -3 0 -2 -11 -37 -25
-77 -14 -40 -25 -75 -25 -77 0 -2 18 -3 39 -3 31 0 41 4 46 20 5 15 15 20 42
20 26 0 36 -5 40 -20 4 -16 14 -20 48 -20 l44 0 -38 113 -38 112 -91 3 -92 3
0 -36z m144 -49 c3 -13 9 -31 12 -40 5 -13 -1 -16 -25 -16 -34 0 -36 3 -20 49
13 37 25 40 33 7z"/>
<path d="M3563 7833 c-61 -12 -98 -93 -69 -155 23 -48 51 -61 139 -66 l77 -5
0 37 0 36 -63 0 c-67 0 -87 10 -87 45 0 35 20 45 87 45 l63 0 0 35 0 35 -62
-1 c-35 -1 -73 -4 -85 -6z"/>
<path d="M3793 7833 c-61 -12 -98 -93 -69 -155 23 -48 51 -61 139 -66 l77 -5
0 37 0 36 -63 0 c-67 0 -87 10 -87 45 0 35 20 45 87 45 l63 0 0 35 0 35 -62
-1 c-35 -1 -73 -4 -85 -6z"/>
<path d="M3950 7725 l0 -115 105 0 c100 0 105 1 105 21 l0 20 26 -20 c56 -44
145 -35 177 18 12 21 17 52 17 110 l0 81 -35 0 -35 0 0 -79 c0 -85 -10 -105
-52 -99 -22 3 -23 8 -26 91 l-3 87 -34 0 -35 0 0 -80 0 -80 -70 0 c-40 0 -70
4 -70 10 0 6 18 10 40 10 33 0 40 3 40 20 0 17 -7 20 -40 20 -29 0 -40 4 -40
15 0 12 13 15 60 15 l60 0 0 35 0 35 -95 0 -95 0 0 -115z"/>
<path d="M4390 7725 l0 -115 35 0 35 0 0 115 0 115 -35 0 -35 0 0 -115z"/>
<path d="M4480 7725 l0 -115 95 0 95 0 0 35 0 35 -60 0 -60 0 0 80 0 80 -35 0
-35 0 0 -115z"/>
<path d="M3252 7308 c-17 -17 -17 -1639 0 -1656 17 -17 2839 -17 2856 0 17 17
17 1639 0 1656 -17 17 -2839 17 -2856 0z m1628 -283 c0 -60 -3 -75 -15 -75
-12 0 -15 15 -15 75 0 60 3 75 15 75 12 0 15 -15 15 -75z m-402 -13 c4 -40
-12 -62 -44 -62 -19 0 -24 -5 -24 -25 0 -16 -6 -25 -15 -25 -12 0 -15 15 -15
74 l0 75 48 -2 c46 -2 47 -3 50 -35z m100 26 c7 -7 12 -20 12 -30 0 -14 -8
-18 -36 -18 -23 0 -33 -4 -28 -11 4 -6 19 -9 36 -5 21 4 28 2 25 -7 -10 -30
-82 -18 -90 15 -13 48 48 89 81 56z m124 -13 c18 -41 -3 -75 -46 -75 -36 0
-56 20 -56 54 0 47 82 64 102 21z m122 3 c17 -28 -4 -72 -37 -76 -21 -3 -27
-9 -27 -28 0 -15 -6 -24 -15 -24 -12 0 -15 15 -15 76 l0 75 41 -3 c26 -2 46
-10 53 -20z m154 10 c7 -7 12 -20 12 -30 0 -14 -8 -18 -36 -18 -23 0 -33 -4
-28 -11 4 -6 19 -9 36 -5 21 4 28 2 25 -7 -10 -30 -82 -18 -90 15 -13 48 48
89 81 56z m-1338 -283 c-7 -8 -16 -15 -21 -15 -5 0 -6 7 -3 15 4 8 13 15 21
15 13 0 13 -3 3 -15z m640 -45 c0 -33 -4 -60 -10 -60 -6 0 -10 27 -10 60 0 33
4 60 10 60 6 0 10 -27 10 -60z m600 0 c0 -33 -4 -60 -10 -60 -6 0 -10 27 -10
60 0 33 4 60 10 60 6 0 10 -27 10 -60z m220 0 c0 -59 0 -60 -29 -60 -39 0 -57
23 -43 55 7 15 20 25 32 25 13 0 20 7 20 20 0 11 5 20 10 20 6 0 10 -27 10
-60z m170 0 c0 -33 -4 -60 -10 -60 -6 0 -10 27 -10 60 0 33 4 60 10 60 6 0 10
-27 10 -60z m340 0 c0 -33 -4 -60 -10 -60 -6 0 -10 27 -10 60 0 33 4 60 10 60
6 0 10 -27 10 -60z m200 50 c0 -5 -7 -10 -15 -10 -8 0 -15 5 -15 10 0 6 7 10
15 10 8 0 15 -4 15 -10z m-2252 -12 c17 -17 15 -64 -4 -82 -8 -9 -29 -16 -45
-16 -29 0 -29 1 -29 55 l0 55 33 0 c18 0 38 -5 45 -12z m100 -40 c3 -14 -3
-18 -27 -18 -24 0 -29 -4 -24 -16 3 -9 13 -14 24 -11 11 3 19 1 19 -4 0 -5
-11 -9 -25 -9 -32 0 -50 32 -35 61 14 25 63 23 68 -3z m72 12 c0 -5 -6 -7 -13
-4 -8 3 -20 -2 -27 -11 -10 -12 -10 -18 0 -30 7 -9 19 -14 27 -11 7 3 13 1 13
-5 0 -6 -12 -9 -27 -7 -29 3 -41 32 -29 64 6 16 56 20 56 4z m85 -30 c0 -29
-4 -36 -23 -38 -43 -6 -69 37 -40 66 7 7 24 12 38 10 21 -3 25 -8 25 -38z m45
4 c0 -45 24 -42 28 4 5 46 22 39 22 -9 0 -39 -1 -40 -32 -37 -30 3 -33 6 -36
41 -2 21 1 37 7 37 6 0 11 -16 11 -36z m88 9 l10 -28 11 28 c6 15 15 27 21 27
6 0 4 -14 -5 -36 -8 -20 -15 -38 -15 -40 0 -2 -4 -4 -10 -4 -5 0 -17 16 -25
36 -18 43 -18 44 -6 44 5 0 14 -12 19 -27z m95 20 c-7 -2 -13 -20 -13 -39 0
-19 -4 -34 -10 -34 -5 0 -10 18 -10 40 0 35 3 40 23 39 12 0 16 -3 10 -6z m85
-15 c3 -14 -3 -18 -23 -18 -17 0 -25 -5 -22 -12 2 -7 14 -13 26 -12 13 0 18
-3 12 -9 -5 -5 -19 -7 -32 -5 -28 4 -38 40 -18 64 16 19 53 14 57 -8z m58 -12
l-26 -35 27 -4 c23 -3 21 -4 -9 -6 -44 -1 -45 1 -18 39 l20 29 -22 4 c-14 3
-8 5 16 6 l38 1 -26 -34z m182 12 c3 -14 -3 -18 -27 -18 -24 0 -29 -4 -24 -16
4 -11 13 -14 32 -9 20 5 23 4 15 -5 -19 -20 -59 -8 -62 18 -2 13 -1 30 2 38 8
21 60 14 64 -8z m72 11 c0 -6 -9 -8 -20 -4 -11 3 -20 2 -20 -4 0 -5 9 -13 21
-16 29 -10 20 -39 -14 -43 -15 -2 -27 1 -27 6 0 6 9 8 20 5 26 -7 25 4 -2 26
-12 10 -18 23 -14 29 9 15 56 16 56 1z m130 -9 c14 -26 -3 -60 -30 -60 -13 0
-20 -7 -20 -20 0 -11 -4 -20 -10 -20 -6 0 -10 27 -10 60 0 60 0 60 30 60 19 0
33 -7 40 -20z m88 -2 c3 -14 -3 -18 -27 -18 -24 0 -29 -4 -24 -16 4 -11 13
-14 32 -9 20 5 23 4 15 -5 -19 -20 -59 -8 -62 18 -2 13 -1 30 2 38 8 21 60 14
64 -8z m90 -15 c3 -28 -1 -33 -23 -39 -29 -7 -55 10 -55 35 0 25 22 42 50 39
20 -2 26 -9 28 -35z m96 15 c14 -23 -3 -52 -33 -56 -13 -2 -21 -11 -21 -23 0
-10 -4 -19 -10 -19 -6 0 -10 27 -10 61 l0 60 31 -3 c18 -2 37 -11 43 -20z
m124 0 c3 -14 -3 -18 -27 -18 -24 0 -29 -4 -24 -16 4 -11 13 -14 32 -9 20 5
23 4 15 -5 -19 -20 -59 -8 -62 18 -2 13 -1 30 2 38 8 21 60 14 64 -8z m220 0
c3 -14 -3 -18 -23 -18 -17 0 -25 -5 -22 -12 2 -7 14 -13 26 -12 13 0 18 -3 12
-9 -5 -5 -19 -7 -32 -5 -28 4 -38 40 -18 64 16 19 53 14 57 -8z m160 -21 c3
-38 3 -38 -30 -35 -39 4 -45 28 -10 43 27 12 29 29 2 22 -11 -3 -17 -1 -14 5
3 5 16 8 27 6 18 -2 23 -11 25 -41z m142 -5 c0 -26 -5 -53 -12 -60 -14 -14
-54 -16 -63 -3 -3 6 7 9 21 8 36 -3 43 21 7 25 -55 6 -38 78 18 78 28 0 29 -2
29 -48z m78 5 c3 -38 3 -38 -30 -35 -39 4 -45 28 -10 43 27 12 29 29 2 22 -11
-3 -17 -1 -14 5 3 5 16 8 27 6 18 -2 23 -11 25 -41z m120 0 c3 -38 3 -38 -30
-35 -39 4 -45 28 -10 43 27 12 29 29 2 22 -11 -3 -17 -1 -14 5 3 5 16 8 27 6
18 -2 23 -11 25 -41z m45 31 c4 -10 8 -9 16 2 5 8 13 11 17 7 4 -3 1 -13 -6
-22 -10 -12 -10 -18 0 -30 16 -20 5 -32 -14 -16 -10 8 -16 9 -21 1 -3 -5 -10
-10 -16 -10 -5 0 -4 9 3 20 10 16 10 24 0 40 -10 16 -10 20 2 20 8 0 17 -6 19
-12z m67 -28 c0 -22 -4 -40 -10 -40 -5 0 -10 18 -10 40 0 22 5 40 10 40 6 0
10 -18 10 -40z m88 18 c3 -14 -3 -18 -27 -18 -24 0 -29 -4 -24 -16 4 -11 13
-14 32 -9 20 5 23 4 15 -5 -19 -20 -59 -8 -62 18 -2 13 -1 30 2 38 8 21 60 14
64 -8z m-1468 -197 c0 -5 -8 -7 -19 -4 -32 8 -33 -14 -1 -37 33 -24 39 -45 14
-54 -23 -9 -54 -7 -54 2 0 5 10 8 21 8 32 -1 35 22 5 35 -25 12 -34 38 -19 52
10 10 53 8 53 -2z m275 -28 l8 -38 15 38 c8 20 18 37 23 37 4 0 13 -17 20 -37
l13 -38 9 38 c11 46 32 51 22 5 -18 -81 -41 -102 -51 -48 -4 17 -10 30 -14 30
-5 0 -11 -13 -15 -30 -10 -46 -28 -36 -46 25 -13 42 -13 55 -4 55 7 0 16 -17
20 -37z m-229 12 c9 -8 11 -15 5 -15 -15 0 -14 -57 2 -64 6 -3 3 -5 -8 -3 -14
2 -22 12 -25 37 -6 34 -3 60 7 60 2 0 11 -7 19 -15z m92 -48 c3 -38 3 -38 -30
-35 -42 4 -51 34 -14 44 14 3 23 10 20 16 -3 5 -12 7 -20 4 -8 -3 -14 -1 -14
5 0 6 12 9 28 7 23 -3 27 -8 30 -41z m55 36 c-7 -2 -13 -20 -13 -39 0 -19 -4
-34 -10 -34 -5 0 -10 18 -10 40 0 35 3 40 23 39 12 0 16 -3 10 -6z m265 -36
c3 -38 3 -38 -30 -35 -39 4 -45 28 -10 43 27 12 29 29 2 22 -11 -3 -17 -1 -14
5 3 5 16 8 27 6 18 -2 23 -11 25 -41z m132 32 c0 -6 -9 -7 -20 -4 -27 8 -26
-9 2 -27 12 -8 18 -19 14 -26 -8 -14 -56 -16 -56 -3 0 5 9 7 20 4 11 -3 20 -1
20 5 0 6 -9 14 -20 17 -11 3 -20 13 -20 22 0 28 -25 6 -28 -25 -5 -46 -22 -40
-22 7 l0 40 55 0 c30 0 55 -5 55 -10z m38 -301 c17 -17 17 -339 0 -356 -9 -9
-104 -12 -368 -12 -264 0 -359 3 -368 12 -17 17 -17 339 0 356 9 9 104 12 368
12 264 0 359 -3 368 -12z"/>
<path d="M4417 7023 c-11 -10 -8 -41 5 -49 14 -9 38 23 31 42 -5 15 -25 19
-36 7z"/>
<path d="M4525 7020 c-3 -5 3 -10 14 -10 12 0 21 5 21 10 0 6 -6 10 -14 10 -8
0 -18 -4 -21 -10z"/>
<path d="M4634 7016 c-9 -24 4 -48 23 -44 12 2 18 12 18 28 0 29 -32 41 -41
16z"/>
<path d="M4757 7015 c-9 -22 3 -46 22 -43 10 2 16 13 16 28 0 28 -29 40 -38
15z"/>
<path d="M4925 7020 c-3 -5 3 -10 14 -10 12 0 21 5 21 10 0 6 -6 10 -14 10 -8
0 -18 -4 -21 -10z"/>
<path d="M5046 6705 c-8 -21 3 -45 20 -45 9 0 14 11 14 30 0 32 -23 42 -34 15z"/>
<path d="M3500 6705 c0 -46 13 -58 38 -33 17 17 15 65 -4 72 -29 11 -34 6 -34
-39z"/>
<path d="M3605 6710 c-3 -5 3 -10 15 -10 12 0 18 5 15 10 -3 6 -10 10 -15 10
-5 0 -12 -4 -15 -10z"/>
<path d="M3764 6705 c-8 -21 2 -45 20 -45 7 0 16 7 20 15 8 21 -3 45 -20 45
-8 0 -17 -7 -20 -15z"/>
<path d="M4085 6710 c-3 -5 1 -10 9 -10 9 0 16 5 16 10 0 6 -4 10 -9 10 -6 0
-13 -4 -16 -10z"/>
<path d="M4320 6710 c0 -5 7 -10 15 -10 8 0 15 5 15 10 0 6 -7 10 -15 10 -8 0
-15 -4 -15 -10z"/>
<path d="M4527 6713 c-13 -12 -7 -53 7 -53 17 0 28 24 20 45 -7 16 -17 19 -27
8z"/>
<path d="M4610 6710 c0 -5 7 -10 15 -10 8 0 15 5 15 10 0 6 -7 10 -15 10 -8 0
-15 -4 -15 -10z"/>
<path d="M4694 6706 c-8 -22 3 -49 19 -43 6 2 12 14 12 27 0 27 -22 39 -31 16z"/>
<path d="M4794 6706 c-8 -22 3 -49 19 -43 6 2 12 14 12 27 0 27 -22 39 -31 16z"/>
<path d="M4920 6710 c0 -5 7 -10 15 -10 8 0 15 5 15 10 0 6 -7 10 -15 10 -8 0
-15 -4 -15 -10z"/>
<path d="M5145 6710 c-3 -5 1 -10 9 -10 9 0 16 5 16 10 0 6 -4 10 -9 10 -6 0
-13 -4 -16 -10z"/>
<path d="M5307 6683 c-12 -11 -8 -23 8 -23 8 0 15 7 15 15 0 16 -12 20 -23 8z"/>
<path d="M5434 6706 c-8 -22 3 -49 19 -43 6 2 12 14 12 27 0 27 -22 39 -31 16z"/>
<path d="M5527 6683 c-12 -11 -8 -23 8 -23 8 0 15 7 15 15 0 16 -12 20 -23 8z"/>
<path d="M5647 6683 c-12 -11 -8 -23 8 -23 8 0 15 7 15 15 0 16 -12 20 -23 8z"/>
<path d="M5840 6710 c0 -5 7 -10 15 -10 8 0 15 5 15 10 0 6 -7 10 -15 10 -8 0
-15 -4 -15 -10z"/>
<path d="M4515 6439 c-4 -6 -5 -13 -2 -16 7 -7 27 6 27 18 0 12 -17 12 -25 -2z"/>
<path d="M4837 6443 c-12 -11 -8 -23 8 -23 8 0 15 7 15 15 0 16 -12 20 -23 8z"/>
<path d="M4440 5996 c0 -31 5 -56 10 -56 6 0 10 9 10 19 0 12 9 21 26 25 20 5
25 12 22 34 -2 22 -9 28 -35 30 l-33 3 0 -55z m55 19 c0 -11 -8 -21 -17 -23
-14 -3 -18 3 -18 23 0 20 4 26 18 23 9 -2 17 -12 17 -23z"/>
<path d="M4913 6015 c0 -22 2 -30 4 -17 2 12 2 30 0 40 -3 9 -5 -1 -4 -23z"/>
<path d="M4550 6009 l25 -11 -28 -10 c-37 -13 -33 -43 6 -44 26 -1 28 1 25 35
-3 30 -7 36 -28 38 l-25 3 25 -11z m20 -39 c0 -12 -28 -25 -36 -17 -9 9 6 27
22 27 8 0 14 -5 14 -10z"/>
<path d="M4611 5975 c2 -33 3 -35 6 -10 2 17 11 35 20 42 13 10 13 12 -6 10
-18 -1 -21 -7 -20 -42z"/>
<path d="M4713 5980 c0 -25 2 -35 4 -22 2 12 2 32 0 45 -2 12 -4 2 -4 -23z"/>
<path d="M4752 6008 c-25 -25 -6 -68 30 -68 10 0 18 4 18 8 0 5 -10 8 -22 8
-18 -1 -23 5 -23 24 0 19 5 25 23 24 12 0 22 3 22 8 0 12 -34 10 -48 -4z"/>
<path d="M4823 5980 c0 -25 2 -35 4 -22 2 12 2 32 0 45 -2 12 -4 2 -4 -23z"/>
<path d="M4900 5950 c0 -5 5 -10 10 -10 6 0 10 5 10 10 0 6 -4 10 -10 10 -5 0
-10 -4 -10 -10z"/>
<path d="M7572 7308 c-17 -17 -17 -1639 0 -1656 17 -17 2839 -17 2856 0 17 17
17 1639 0 1656 -17 17 -2839 17 -2856 0z m1258 -283 c0 -60 -3 -75 -15 -75
-12 0 -15 15 -15 75 0 60 3 75 15 75 12 0 15 -15 15 -75z m390 41 c0 -8 6 -17
13 -20 10 -5 10 -7 0 -12 -15 -7 -18 -64 -3 -64 6 0 10 -5 10 -11 0 -6 -10 -9
-22 -7 -18 2 -24 11 -26 38 -2 19 -9 39 -15 43 -9 6 -9 10 1 14 6 2 12 11 12
19 0 8 7 14 15 14 8 0 15 -6 15 -14z m-439 -43 c13 -34 -11 -73 -46 -73 -20 0
-25 -5 -25 -25 0 -16 -6 -25 -15 -25 -12 0 -15 15 -15 74 l0 73 45 1 c40 1 47
-2 56 -25z m153 11 c3 -9 6 -31 6 -50 0 -35 0 -35 -42 -32 -36 2 -44 7 -46 26
-3 18 2 23 27 28 17 4 31 11 31 16 0 6 -11 8 -25 6 -17 -4 -25 -1 -25 8 0 20
66 18 74 -2z m116 -4 c15 -29 13 -80 -4 -80 -10 0 -16 13 -18 38 -2 25 -8 37
-18 37 -10 0 -16 -12 -18 -37 -2 -25 -8 -38 -18 -38 -10 0 -14 13 -14 49 l0
49 40 0 c29 1 43 -4 50 -18z m108 8 c7 -7 12 -20 12 -30 0 -14 -8 -18 -36 -18
-23 0 -33 -4 -28 -11 3 -6 17 -9 30 -6 16 3 24 0 24 -9 0 -9 -12 -14 -35 -14
-44 0 -65 34 -47 75 13 27 58 35 80 13z m162 -2 c0 -9 -7 -12 -20 -9 -11 3
-20 0 -20 -6 0 -6 6 -11 14 -11 7 0 19 -7 26 -15 10 -12 10 -18 0 -30 -16 -19
-70 -20 -70 -1 0 9 9 12 28 9 l27 -5 -29 24 c-37 31 -30 58 14 58 19 0 30 -5
30 -14z m-1376 -281 c-4 -8 -10 -15 -15 -15 -4 0 -6 7 -3 15 4 8 10 15 15 15
4 0 6 -7 3 -15z m646 -45 c0 -33 -4 -60 -10 -60 -6 0 -10 27 -10 60 0 33 4 60
10 60 6 0 10 -27 10 -60z m330 0 c0 -33 -4 -60 -10 -60 -6 0 -10 27 -10 60 0
33 4 60 10 60 6 0 10 -27 10 -60z m510 0 c0 -59 0 -60 -29 -60 -39 0 -57 23
-43 55 7 15 20 25 32 25 13 0 20 7 20 20 0 11 5 20 10 20 6 0 10 -27 10 -60z
m170 0 c0 -33 -4 -60 -10 -60 -6 0 -10 27 -10 60 0 33 4 60 10 60 6 0 10 -27
10 -60z m340 0 c0 -33 -4 -60 -10 -60 -6 0 -10 27 -10 60 0 33 4 60 10 60 6 0
10 -27 10 -60z m200 50 c0 -5 -7 -10 -15 -10 -8 0 -15 5 -15 10 0 6 7 10 15
10 8 0 15 -4 15 -10z m-2272 -12 c17 -17 15 -64 -4 -82 -8 -9 -29 -16 -45 -16
-29 0 -29 1 -29 55 l0 55 33 0 c18 0 38 -5 45 -12z m1358 -13 c9 -8 11 -15 5
-15 -6 0 -11 -13 -11 -28 0 -25 4 -29 30 -29 34 0 39 12 10 27 -25 14 -15 40
16 40 13 0 24 -4 24 -10 0 -5 -6 -7 -14 -4 -8 3 -17 1 -20 -5 -4 -5 3 -13 14
-16 13 -4 20 -14 18 -23 -2 -13 -16 -18 -51 -20 l-47 -3 0 35 c0 20 -4 36 -10
36 -5 0 -10 -7 -10 -15 0 -10 -10 -15 -30 -15 -23 0 -28 -4 -23 -16 4 -11 13
-14 32 -9 20 5 23 4 15 -5 -7 -6 -22 -10 -35 -8 -20 2 -24 9 -24 38 0 34 1 35
40 36 21 1 41 6 43 13 5 15 10 14 28 -4z m-1268 -17 c20 -20 14 -28 -19 -28
-20 0 -29 -4 -26 -12 2 -7 14 -13 26 -12 11 0 21 -3 21 -8 0 -12 -44 -10 -58
4 -7 7 -12 19 -12 28 0 9 5 21 12 28 7 7 19 12 28 12 9 0 21 -5 28 -12z m82 2
c0 -5 -6 -7 -13 -4 -8 3 -20 -2 -27 -11 -10 -12 -10 -18 0 -30 7 -9 19 -14 27
-11 7 3 13 1 13 -5 0 -6 -12 -9 -27 -7 -29 3 -41 32 -29 64 6 16 56 20 56 4z
m88 -27 c3 -28 -1 -33 -23 -39 -29 -7 -55 10 -55 35 0 25 22 42 50 39 20 -2
26 -9 28 -35z m42 1 c0 -45 24 -42 28 4 5 46 22 39 22 -9 0 -39 -1 -40 -32
-37 -30 3 -33 6 -36 41 -2 21 1 37 7 37 6 0 11 -16 11 -36z m88 9 l10 -28 11
28 c6 15 15 27 20 27 5 0 2 -18 -6 -40 -9 -22 -20 -40 -25 -40 -8 0 -38 59
-38 75 0 16 20 1 28 -22z m95 20 c-7 -2 -13 -20 -13 -39 0 -19 -4 -34 -10 -34
-5 0 -10 18 -10 40 0 35 3 40 23 39 12 0 16 -3 10 -6z m85 -15 c3 -14 -3 -18
-27 -18 -24 0 -29 -4 -24 -16 4 -11 13 -14 32 -9 20 5 23 4 15 -5 -19 -20 -59
-8 -62 18 -2 13 -1 30 2 38 8 21 60 14 64 -8z m58 -12 l-26 -35 27 -4 c23 -3
21 -4 -9 -6 -44 -1 -45 1 -18 39 l20 29 -22 4 c-14 3 -8 5 16 6 l38 1 -26 -34z
m182 12 c3 -14 -3 -18 -27 -18 -24 0 -29 -4 -24 -16 4 -11 13 -14 32 -9 20 5
23 4 15 -5 -19 -20 -59 -8 -62 18 -2 13 -1 30 2 38 8 21 60 14 64 -8z m72 11
c0 -6 -9 -8 -20 -4 -27 8 -26 -9 2 -27 12 -8 18 -19 14 -26 -8 -14 -56 -16
-56 -3 0 5 9 7 20 4 11 -3 20 -1 20 5 0 6 -9 14 -20 17 -20 6 -26 25 -13 38
10 11 53 8 53 -4z m130 -9 c14 -26 -3 -60 -30 -60 -13 0 -20 -7 -20 -20 0 -11
-4 -20 -10 -20 -6 0 -10 27 -10 60 0 60 0 60 30 60 19 0 33 -7 40 -20z m118
-23 c3 -38 3 -38 -30 -35 -39 4 -45 28 -10 43 27 12 29 29 2 22 -11 -3 -17 -1
-14 5 3 5 16 8 27 6 18 -2 23 -11 25 -41z m90 1 c2 -22 -1 -38 -7 -38 -6 0
-11 16 -11 36 0 45 -24 42 -28 -4 -5 -46 -22 -39 -22 9 0 39 1 40 33 37 29 -3
32 -6 35 -40z m430 20 c3 -14 -3 -18 -23 -18 -17 0 -25 -5 -22 -12 2 -7 14
-13 26 -12 13 0 18 -3 12 -9 -5 -5 -19 -7 -32 -5 -28 4 -38 40 -18 64 16 19
53 14 57 -8z m160 -20 c3 -36 2 -38 -26 -38 -17 0 -32 6 -35 14 -6 16 11 36
30 36 7 0 13 5 13 11 0 6 -9 8 -21 4 -15 -5 -19 -4 -14 5 4 6 17 10 28 8 17
-2 23 -11 25 -40z m142 -6 c0 -26 -5 -53 -12 -60 -14 -14 -58 -16 -58 -4 0 5
10 8 21 8 12 -1 24 5 26 12 3 7 -3 12 -14 12 -23 0 -43 18 -43 40 0 24 21 40
52 40 27 0 28 -2 28 -48z m78 5 c3 -38 3 -38 -30 -35 -39 4 -45 28 -10 43 27
12 29 29 2 22 -11 -3 -17 -1 -14 5 3 5 16 8 27 6 18 -2 23 -11 25 -41z m120 1
c3 -36 2 -38 -26 -38 -17 0 -32 6 -35 14 -6 16 11 36 30 36 7 0 13 5 13 11 0
6 -9 8 -21 4 -15 -5 -19 -4 -14 5 4 6 17 10 28 8 17 -2 23 -11 25 -40z m45 30
c4 -10 8 -9 16 2 5 8 13 11 17 7 4 -3 1 -13 -6 -22 -10 -12 -10 -18 0 -30 16
-20 5 -32 -14 -16 -10 8 -16 9 -21 1 -3 -5 -10 -10 -16 -10 -5 0 -4 9 3 20 10
16 10 24 0 40 -10 16 -10 20 2 20 8 0 17 -6 19 -12z m67 -28 c0 -22 -4 -40
-10 -40 -5 0 -10 18 -10 40 0 22 5 40 10 40 6 0 10 -18 10 -40z m88 18 c3 -14
-3 -18 -23 -18 -17 0 -25 -5 -22 -12 2 -7 14 -13 26 -12 13 0 18 -3 12 -9 -5
-5 -19 -7 -32 -5 -28 4 -38 40 -18 64 16 19 53 14 57 -8z m-1478 -197 c0 -5
-8 -7 -19 -4 -32 8 -33 -14 -1 -37 33 -24 39 -45 14 -54 -23 -9 -54 -7 -54 2
0 5 10 8 21 8 32 -1 35 22 5 35 -25 12 -34 38 -19 52 10 10 53 8 53 -2z m275
-28 l8 -38 15 38 c8 20 18 37 23 37 4 0 13 -17 20 -37 l13 -38 9 38 c11 46 32
51 22 5 -18 -81 -41 -102 -51 -48 -4 17 -10 30 -14 30 -5 0 -11 -13 -15 -30
-10 -46 -28 -36 -46 25 -13 42 -13 55 -4 55 7 0 16 -17 20 -37z m-229 12 c9
-8 11 -15 5 -15 -15 0 -14 -57 2 -64 6 -3 3 -5 -8 -3 -14 2 -22 12 -25 37 -6
34 -3 60 7 60 2 0 11 -7 19 -15z m92 -48 c3 -38 3 -38 -30 -35 -42 4 -51 34
-14 44 14 3 23 10 20 16 -3 5 -12 7 -20 4 -8 -3 -14 -1 -14 5 0 6 12 9 28 7
23 -3 27 -8 30 -41z m55 36 c-7 -2 -13 -20 -13 -39 0 -19 -4 -34 -10 -34 -5 0
-10 18 -10 40 0 35 3 40 23 39 12 0 16 -3 10 -6z m265 -36 c3 -38 3 -38 -30
-35 -39 4 -45 28 -10 43 27 12 29 29 2 22 -11 -3 -17 -1 -14 5 3 5 16 8 27 6
18 -2 23 -11 25 -41z m132 32 c0 -6 -9 -7 -20 -4 -27 8 -26 -9 2 -27 12 -8 18
-19 14 -26 -8 -14 -56 -16 -56 -3 0 5 9 7 20 4 11 -3 20 -1 20 5 0 6 -9 14
-20 17 -11 3 -20 13 -20 22 0 28 -25 6 -28 -25 -5 -46 -22 -40 -22 7 l0 40 55
0 c30 0 55 -5 55 -10z m38 -301 c8 -8 12 -62 12 -178 0 -116 -4 -170 -12 -178
-9 -9 -104 -12 -368 -12 -264 0 -359 3 -368 12 -8 8 -12 62 -12 178 0 116 4
170 12 178 9 9 104 12 368 12 264 0 359 -3 368 -12z"/>
<path d="M8714 7015 c-8 -21 2 -45 20 -45 17 0 28 24 20 45 -4 8 -13 15 -20
15 -8 0 -17 -7 -20 -15z"/>
<path d="M8880 6980 c0 -5 4 -10 9 -10 6 0 13 5 16 10 3 6 -1 10 -9 10 -9 0
-16 -4 -16 -10z"/>
<path d="M9105 7020 c-3 -5 3 -10 14 -10 12 0 21 5 21 10 0 6 -6 10 -14 10 -8
0 -18 -4 -21 -10z"/>
<path d="M9376 6705 c-8 -21 3 -45 20 -45 9 0 14 11 14 30 0 32 -23 42 -34 15z"/>
<path d="M7810 6705 c0 -46 13 -58 38 -33 17 17 15 65 -4 72 -29 11 -34 6 -34
-39z"/>
<path d="M9130 6710 c0 -5 7 -10 15 -10 8 0 15 5 15 10 0 6 -7 10 -15 10 -8 0
-15 -4 -15 -10z"/>
<path d="M7915 6710 c-3 -5 3 -10 15 -10 12 0 18 5 15 10 -3 6 -10 10 -15 10
-5 0 -12 -4 -15 -10z"/>
<path d="M8074 6706 c-8 -22 3 -49 19 -43 6 2 12 14 12 27 0 27 -22 39 -31 16z"/>
<path d="M8390 6710 c0 -5 7 -10 15 -10 8 0 15 5 15 10 0 6 -7 10 -15 10 -8 0
-15 -4 -15 -10z"/>
<path d="M8630 6710 c0 -5 7 -10 15 -10 8 0 15 5 15 10 0 6 -7 10 -15 10 -8 0
-15 -4 -15 -10z"/>
<path d="M8837 6713 c-13 -12 -7 -53 7 -53 17 0 28 24 20 45 -7 16 -17 19 -27
8z"/>
<path d="M8957 6683 c-12 -11 -8 -23 8 -23 8 0 15 7 15 15 0 16 -12 20 -23 8z"/>
<path d="M9475 6710 c-3 -5 1 -10 9 -10 9 0 16 5 16 10 0 6 -4 10 -9 10 -6 0
-13 -4 -16 -10z"/>
<path d="M9637 6684 c-8 -8 1 -24 14 -24 5 0 9 7 9 15 0 15 -12 20 -23 9z"/>
<path d="M9764 6706 c-8 -22 3 -49 19 -43 6 2 12 14 12 27 0 27 -22 39 -31 16z"/>
<path d="M9857 6683 c-12 -11 -8 -23 8 -23 8 0 15 7 15 15 0 16 -12 20 -23 8z"/>
<path d="M9977 6684 c-8 -8 1 -24 14 -24 5 0 9 7 9 15 0 15 -12 20 -23 9z"/>
<path d="M10175 6710 c-3 -5 1 -10 9 -10 9 0 16 5 16 10 0 6 -4 10 -9 10 -6 0
-13 -4 -16 -10z"/>
<path d="M8835 6439 c-4 -6 -5 -13 -2 -16 7 -7 27 6 27 18 0 12 -17 12 -25 -2z"/>
<path d="M9157 6443 c-12 -11 -8 -23 8 -23 8 0 15 7 15 15 0 16 -12 20 -23 8z"/>
<path d="M8760 5996 c0 -31 5 -56 10 -56 6 0 10 9 10 19 0 12 9 21 26 25 20 5
25 12 22 34 -2 22 -9 28 -35 30 l-33 3 0 -55z m55 19 c0 -11 -8 -21 -17 -23
-14 -3 -18 3 -18 23 0 20 4 26 18 23 9 -2 17 -12 17 -23z"/>
<path d="M9233 6015 c0 -22 2 -30 4 -17 2 12 2 30 0 40 -3 9 -5 -1 -4 -23z"/>
<path d="M8870 6009 l25 -11 -28 -10 c-37 -13 -33 -43 6 -44 26 -1 28 1 25 35
-3 30 -7 36 -28 38 l-25 3 25 -11z m20 -39 c0 -12 -28 -25 -36 -17 -9 9 6 27
22 27 8 0 14 -5 14 -10z"/>
<path d="M8931 5975 c2 -33 3 -35 6 -10 2 17 11 35 20 42 13 10 13 12 -6 10
-18 -1 -21 -7 -20 -42z"/>
<path d="M9033 5980 c0 -25 2 -35 4 -22 2 12 2 32 0 45 -2 12 -4 2 -4 -23z"/>
<path d="M9072 6008 c-25 -25 -6 -68 30 -68 10 0 18 4 18 8 0 5 -10 8 -22 8
-18 -1 -23 5 -23 24 0 19 5 25 23 24 12 0 22 3 22 8 0 12 -34 10 -48 -4z"/>
<path d="M9143 5980 c0 -25 2 -35 4 -22 2 12 2 32 0 45 -2 12 -4 2 -4 -23z"/>
<path d="M9220 5950 c0 -5 5 -10 10 -10 6 0 10 5 10 10 0 6 -4 10 -10 10 -5 0
-10 -4 -10 -10z"/>
<path d="M11892 7308 c-17 -17 -17 -1639 0 -1656 17 -17 2839 -17 2856 0 17
17 17 1639 0 1656 -17 17 -2839 17 -2856 0z m1318 -225 c0 -11 -8 -13 -30 -8
-23 5 -30 3 -30 -9 0 -11 9 -16 30 -16 29 0 30 -1 30 -50 0 -38 -4 -50 -15
-50 -11 0 -15 11 -15 40 0 29 -4 40 -15 40 -11 0 -15 -11 -15 -40 0 -29 -4
-40 -15 -40 -22 0 -25 110 -4 136 15 18 79 15 79 -3z m60 -58 c0 -60 -3 -75
-15 -75 -12 0 -15 15 -15 75 0 60 3 75 15 75 12 0 15 -15 15 -75z m168 -27 c2
-38 0 -48 -12 -48 -12 0 -16 11 -16 41 0 52 -24 48 -28 -4 -2 -23 -8 -37 -17
-37 -9 0 -15 14 -17 37 -4 52 -28 56 -28 4 0 -30 -4 -41 -15 -41 -11 0 -15 12
-15 50 l0 50 73 -2 72 -3 3 -47z m92 38 c0 -9 -7 -12 -20 -9 -11 3 -20 0 -20
-6 0 -6 6 -11 14 -11 7 0 19 -7 26 -15 10 -12 10 -18 0 -30 -16 -19 -70 -20
-70 -1 0 9 9 12 28 9 l27 -5 -29 24 c-37 31 -30 58 14 58 19 0 30 -5 30 -14z
m-1176 -281 c-4 -8 -10 -15 -15 -15 -4 0 -6 7 -3 15 4 8 10 15 15 15 4 0 6 -7
3 -15z m646 -45 c0 -33 -4 -60 -10 -60 -6 0 -10 27 -10 60 0 33 4 60 10 60 6
0 10 -27 10 -60z m290 49 c0 -7 -10 -9 -25 -5 -18 5 -25 2 -25 -9 0 -8 9 -15
20 -15 17 0 20 -7 20 -40 0 -22 -4 -40 -10 -40 -5 0 -10 16 -10 35 0 19 -4 35
-10 35 -5 0 -10 -16 -10 -35 0 -48 -17 -44 -22 5 -5 59 6 80 42 80 16 0 30 -5
30 -11z m30 -49 c0 -33 -4 -60 -10 -60 -6 0 -10 27 -10 60 0 33 4 60 10 60 6
0 10 -27 10 -60z m350 -1 l0 -60 -37 3 c-36 3 -38 5 -38 38 0 31 3 35 28 38
19 2 27 9 27 23 0 10 5 19 10 19 6 0 10 -27 10 -61z m160 1 c0 -33 -4 -60 -10
-60 -6 0 -10 27 -10 60 0 33 4 60 10 60 6 0 10 -27 10 -60z m340 0 c0 -33 -4
-60 -10 -60 -6 0 -10 27 -10 60 0 33 4 60 10 60 6 0 10 -27 10 -60z m200 50
c0 -5 -4 -10 -10 -10 -5 0 -10 5 -10 10 0 6 5 10 10 10 6 0 10 -4 10 -10z
m-2099 -10 c43 -24 11 -100 -43 -100 -27 0 -28 1 -28 55 0 52 1 55 26 55 14 0
34 -5 45 -10z m100 -36 c11 -14 13 -14 21 0 9 17 58 22 58 7 0 -5 -8 -7 -19
-4 -11 3 -21 -2 -24 -11 -10 -25 3 -48 24 -43 11 3 19 1 19 -4 0 -18 -49 -9
-60 11 -12 23 -75 30 -67 8 2 -7 14 -13 26 -12 11 0 21 -3 21 -8 0 -12 -44
-10 -58 4 -25 25 -7 68 29 68 9 0 22 -7 30 -16z m167 -21 c3 -28 -1 -33 -23
-39 -29 -7 -55 10 -55 35 0 25 22 42 50 39 20 -2 26 -9 28 -35z m34 5 c2 -21
8 -33 18 -33 10 0 16 12 18 33 5 46 22 40 22 -8 0 -39 -1 -40 -34 -40 -36 0
-46 12 -46 56 0 36 18 29 22 -8z m96 5 l10 -28 11 28 c9 22 17 27 46 27 33 0
35 -1 21 -16 -9 -8 -16 -26 -16 -40 0 -40 -20 -27 -21 14 l-1 37 -15 -37 c-9
-21 -20 -38 -25 -38 -8 0 -38 59 -38 75 0 16 20 1 28 -22z m180 5 c3 -14 -3
-18 -27 -18 -23 0 -29 -4 -25 -15 9 -22 63 -12 85 16 18 24 18 24 -4 31 -17 4
-13 6 16 7 l38 1 -26 -34 -26 -35 28 -4 c15 -2 -6 -4 -47 -3 -70 1 -75 2 -78
24 -2 13 -1 30 2 38 8 21 60 14 64 -8z m240 0 c3 -14 -3 -18 -27 -18 -24 0
-29 -4 -24 -16 3 -9 13 -14 24 -11 11 3 19 1 19 -4 0 -5 -11 -9 -25 -9 -32 0
-50 32 -35 61 14 25 63 23 68 -3z m62 12 c0 -5 -7 -7 -15 -4 -20 8 -19 -13 2
-24 21 -12 10 -42 -17 -42 -11 0 -20 4 -20 10 0 5 7 7 15 4 20 -8 19 13 -2 24
-21 12 -10 42 17 42 11 0 20 -4 20 -10z m308 -32 c2 -21 -1 -38 -7 -38 -5 0
-11 15 -13 33 -2 17 -7 32 -13 32 -5 0 -11 -15 -13 -32 -2 -18 -7 -33 -12 -33
-5 0 -10 15 -12 33 -2 17 -7 32 -13 32 -5 0 -11 -15 -13 -32 -5 -47 -22 -41
-22 7 l0 40 58 -2 57 -3 3 -37z m72 32 c0 -5 -6 -7 -14 -4 -8 3 -17 1 -20 -5
-4 -5 3 -13 14 -16 30 -10 21 -39 -13 -43 -15 -2 -27 2 -27 8 0 7 8 9 20 5 26
-8 26 11 0 25 -25 14 -15 40 16 40 13 0 24 -4 24 -10z m218 -2 c20 -20 14 -28
-19 -28 -20 0 -29 -4 -26 -12 2 -7 14 -13 26 -12 11 0 21 -3 21 -8 0 -12 -44
-10 -58 4 -24 24 -7 68 28 68 9 0 21 -5 28 -12z m160 -30 c3 -36 2 -38 -26
-38 -17 0 -32 6 -35 14 -6 16 11 36 30 36 7 0 13 5 13 11 0 6 -9 8 -21 4 -15
-5 -19 -4 -14 5 4 6 17 10 28 8 17 -2 23 -11 25 -40z m142 -6 c0 -26 -5 -53
-12 -60 -14 -14 -58 -16 -58 -4 0 5 10 8 21 8 12 -1 24 5 26 12 3 7 -3 12 -14
12 -23 0 -43 18 -43 40 0 24 21 40 52 40 27 0 28 -2 28 -48z m78 6 c3 -36 2
-38 -26 -38 -17 0 -32 6 -35 14 -6 16 11 36 30 36 7 0 13 5 13 11 0 6 -9 8
-21 4 -15 -5 -19 -4 -14 5 4 6 17 10 28 8 17 -2 23 -11 25 -40z m120 0 c3 -36
2 -38 -26 -38 -17 0 -32 6 -35 14 -6 16 11 36 30 36 7 0 13 5 13 11 0 6 -9 8
-21 4 -15 -5 -19 -4 -14 5 4 6 17 10 28 8 17 -2 23 -11 25 -40z m45 30 c4 -10
7 -10 18 0 20 19 31 14 17 -8 -10 -16 -10 -24 0 -40 10 -16 10 -20 -2 -20 -8
0 -17 6 -20 13 -5 10 -7 10 -12 0 -3 -7 -13 -13 -21 -13 -14 0 -13 3 2 20 14
16 16 23 7 32 -7 7 -12 16 -12 20 0 13 18 9 23 -4z m77 -28 c0 -22 -4 -40 -10
-40 -5 0 -10 18 -10 40 0 22 5 40 10 40 6 0 10 -18 10 -40z m78 18 c3 -14 -3
-18 -23 -18 -17 0 -25 -5 -22 -12 2 -7 14 -13 26 -12 13 0 18 -3 12 -9 -5 -5
-19 -7 -32 -5 -28 4 -38 40 -18 64 16 19 53 14 57 -8z m-1388 -197 c0 -5 -8
-7 -19 -4 -32 8 -33 -14 -1 -37 33 -24 39 -45 14 -54 -23 -9 -54 -7 -54 2 0 5
10 8 21 8 32 -1 35 22 5 35 -25 12 -34 38 -19 52 10 10 53 8 53 -2z m275 -28
l8 -38 15 38 c8 20 18 37 23 37 4 0 13 -17 20 -37 l13 -38 9 38 c11 46 32 51
22 5 -18 -81 -41 -102 -51 -48 -4 17 -10 30 -14 30 -5 0 -11 -13 -15 -30 -10
-46 -28 -36 -46 25 -13 42 -13 55 -4 55 7 0 16 -17 20 -37z m-229 12 c9 -8 11
-15 5 -15 -15 0 -14 -57 2 -64 6 -3 3 -5 -8 -3 -14 2 -22 12 -25 37 -6 34 -3
60 7 60 2 0 11 -7 19 -15z m92 -48 c3 -38 3 -38 -30 -35 -42 4 -51 34 -14 44
14 3 23 10 20 16 -3 5 -12 7 -20 4 -8 -3 -14 -1 -14 5 0 6 12 9 28 7 23 -3 27
-8 30 -41z m55 36 c-7 -2 -13 -20 -13 -39 0 -19 -4 -34 -10 -34 -5 0 -10 18
-10 40 0 35 3 40 23 39 12 0 16 -3 10 -6z m265 -36 c3 -38 3 -38 -30 -35 -39
4 -45 28 -10 43 27 12 29 29 2 22 -11 -3 -17 -1 -14 5 3 5 16 8 27 6 18 -2 23
-11 25 -41z m132 32 c0 -6 -9 -7 -20 -4 -27 8 -26 -9 2 -27 12 -8 18 -19 14
-26 -8 -14 -56 -16 -56 -3 0 5 9 7 20 4 11 -3 20 -1 20 5 0 6 -9 14 -20 17
-11 3 -20 13 -20 22 0 28 -25 6 -28 -25 -5 -46 -22 -40 -22 7 l0 40 55 0 c30
0 55 -5 55 -10z m38 -301 c8 -8 12 -62 12 -178 0 -116 -4 -170 -12 -178 -9 -9
-104 -12 -368 -12 -264 0 -359 3 -368 12 -17 17 -17 339 0 356 9 9 104 12 368
12 264 0 359 -3 368 -12z"/>
<path d="M13606 6705 c-7 -20 3 -45 19 -45 16 0 29 35 20 50 -9 15 -32 12 -39
-5z"/>
<path d="M12220 6705 c0 -46 13 -58 38 -33 25 25 8 78 -25 78 -9 0 -13 -15
-13 -45z"/>
<path d="M12325 6710 c-3 -5 3 -10 15 -10 12 0 18 5 15 10 -3 6 -10 10 -15 10
-5 0 -12 -4 -15 -10z"/>
<path d="M12484 6706 c-8 -22 3 -49 19 -43 6 2 12 14 12 27 0 27 -22 39 -31
16z"/>
<path d="M12800 6710 c0 -5 7 -10 15 -10 8 0 15 5 15 10 0 6 -7 10 -15 10 -8
0 -15 -4 -15 -10z"/>
<path d="M13035 6710 c-3 -5 3 -10 15 -10 12 0 18 5 15 10 -3 6 -10 10 -15 10
-5 0 -12 -4 -15 -10z"/>
<path d="M13705 6710 c-3 -5 3 -10 15 -10 12 0 18 5 15 10 -3 6 -10 10 -15 10
-5 0 -12 -4 -15 -10z"/>
<path d="M13867 6684 c-8 -8 1 -24 14 -24 5 0 9 7 9 15 0 15 -12 20 -23 9z"/>
<path d="M13994 6706 c-8 -22 3 -49 19 -43 6 2 12 14 12 27 0 27 -22 39 -31
16z"/>
<path d="M14087 6684 c-8 -8 1 -24 14 -24 5 0 9 7 9 15 0 15 -12 20 -23 9z"/>
<path d="M14207 6684 c-8 -8 1 -24 14 -24 5 0 9 7 9 15 0 15 -12 20 -23 9z"/>
<path d="M14405 6710 c-3 -5 1 -10 9 -10 9 0 16 5 16 10 0 6 -4 10 -9 10 -6 0
-13 -4 -16 -10z"/>
<path d="M13155 6439 c-4 -6 -5 -13 -2 -16 7 -7 27 6 27 18 0 12 -17 12 -25
-2z"/>
<path d="M13477 6443 c-12 -11 -8 -23 8 -23 8 0 15 7 15 15 0 16 -12 20 -23 8z"/>
<path d="M13080 5996 c0 -31 5 -56 10 -56 6 0 10 9 10 19 0 12 9 21 26 25 20
5 25 12 22 34 -2 22 -9 28 -35 30 l-33 3 0 -55z m55 19 c0 -11 -8 -21 -17 -23
-14 -3 -18 3 -18 23 0 20 4 26 18 23 9 -2 17 -12 17 -23z"/>
<path d="M13553 6015 c0 -22 2 -30 4 -17 2 12 2 30 0 40 -3 9 -5 -1 -4 -23z"/>
<path d="M13190 6009 l25 -11 -28 -10 c-37 -13 -33 -43 6 -44 26 -1 28 1 25
35 -3 30 -7 36 -28 38 l-25 3 25 -11z m20 -39 c0 -12 -28 -25 -36 -17 -9 9 6
27 22 27 8 0 14 -5 14 -10z"/>
<path d="M13251 5975 c2 -33 3 -35 6 -10 2 17 11 35 20 42 13 10 13 12 -6 10
-18 -1 -21 -7 -20 -42z"/>
<path d="M13353 5980 c0 -25 2 -35 4 -22 2 12 2 32 0 45 -2 12 -4 2 -4 -23z"/>
<path d="M13392 6008 c-25 -25 -6 -68 30 -68 10 0 18 4 18 8 0 5 -10 8 -22 8
-18 -1 -23 5 -23 24 0 19 5 25 23 24 12 0 22 3 22 8 0 12 -34 10 -48 -4z"/>
<path d="M13463 5980 c0 -25 2 -35 4 -22 2 12 2 32 0 45 -2 12 -4 2 -4 -23z"/>
<path d="M13540 5950 c0 -5 5 -10 10 -10 6 0 10 5 10 10 0 6 -4 10 -10 10 -5
0 -10 -4 -10 -10z"/>
<path d="M3252 5308 c-17 -17 -17 -1639 0 -1656 17 -17 2839 -17 2856 0 17 17
17 1639 0 1656 -17 17 -2839 17 -2856 0z m1548 -223 c0 -8 -7 -15 -15 -15 -16
0 -20 12 -8 23 11 12 23 8 23 -8z m-370 -49 c0 -9 -8 -13 -22 -9 -21 4 -21 3
5 -17 30 -24 35 -45 11 -54 -28 -11 -64 -6 -64 8 0 9 9 12 28 9 l27 -5 -30 25
c-25 21 -28 27 -16 41 17 20 61 21 61 2z m121 -13 c13 -34 -11 -73 -46 -73
-20 0 -25 -5 -25 -25 0 -16 -6 -25 -15 -25 -12 0 -15 15 -15 74 l0 73 45 1
c40 1 47 -2 56 -25z m97 15 c7 -7 12 -20 12 -30 0 -13 -8 -18 -30 -18 -16 0
-30 -5 -30 -11 0 -7 11 -9 31 -5 22 4 29 2 27 -7 -6 -17 -56 -21 -74 -6 -17
14 -19 60 -2 77 7 7 21 12 33 12 12 0 26 -5 33 -12z m112 -2 c0 -9 -7 -12 -18
-9 -23 6 -44 -19 -36 -42 5 -11 14 -15 30 -12 16 3 24 0 24 -9 0 -20 -49 -18
-72 3 -22 20 -23 32 -2 61 17 25 74 31 74 8z m40 -36 c0 -38 -4 -50 -15 -50
-11 0 -15 12 -15 50 0 38 4 50 15 50 11 0 15 -12 15 -50z m110 31 c17 -33 12
-41 -26 -41 -23 0 -33 -4 -28 -11 3 -6 17 -9 31 -6 15 3 22 0 20 -7 -5 -16
-56 -20 -73 -5 -17 14 -19 60 -2 77 19 19 66 15 78 -7z m90 5 c0 -9 -7 -12
-20 -9 -26 7 -26 -14 1 -22 34 -11 21 -49 -18 -53 -24 -2 -33 1 -33 11 0 10 7
13 20 10 11 -3 20 -1 20 5 0 6 -9 14 -20 17 -19 6 -27 35 -13 48 13 13 63 7
63 -7z m-1370 -281 c-7 -8 -16 -15 -21 -15 -5 0 -6 7 -3 15 4 8 13 15 21 15
13 0 13 -3 3 -15z m640 -45 c0 -33 -4 -60 -10 -60 -6 0 -10 27 -10 60 0 33 4
60 10 60 6 0 10 -27 10 -60z m560 50 c0 -5 -4 -10 -10 -10 -5 0 -10 5 -10 10
0 6 5 10 10 10 6 0 10 -4 10 -10z m280 -50 c0 -59 0 -60 -29 -60 -39 0 -57 23
-43 55 7 15 20 25 32 25 13 0 20 7 20 20 0 11 5 20 10 20 6 0 10 -27 10 -60z
m170 0 c0 -33 -4 -60 -10 -60 -6 0 -10 27 -10 60 0 33 4 60 10 60 6 0 10 -27
10 -60z m340 0 c0 -33 -4 -60 -10 -60 -6 0 -10 27 -10 60 0 33 4 60 10 60 6 0
10 -27 10 -60z m200 50 c0 -5 -7 -10 -15 -10 -8 0 -15 5 -15 10 0 6 7 10 15
10 8 0 15 -4 15 -10z m-2272 -12 c17 -17 15 -64 -4 -82 -8 -9 -29 -16 -45 -16
-29 0 -29 1 -29 55 l0 55 33 0 c18 0 38 -5 45 -12z m100 -40 c3 -14 -3 -18
-27 -18 -24 0 -29 -4 -24 -16 3 -9 13 -14 24 -11 11 3 19 1 19 -4 0 -5 -11 -9
-25 -9 -32 0 -50 32 -35 61 14 25 63 23 68 -3z m72 12 c0 -5 -6 -7 -13 -4 -8
3 -20 -2 -27 -11 -10 -12 -10 -18 0 -30 7 -9 19 -14 27 -11 7 3 13 1 13 -5 0
-6 -12 -9 -27 -7 -29 3 -41 32 -29 64 6 16 56 20 56 4z m85 -30 c0 -29 -4 -36
-23 -38 -43 -6 -69 37 -40 66 7 7 24 12 38 10 21 -3 25 -8 25 -38z m45 4 c0
-45 24 -42 28 4 5 46 22 39 22 -9 0 -39 -1 -40 -32 -37 -30 3 -33 6 -36 41 -2
21 1 37 7 37 6 0 11 -16 11 -36z m88 9 l10 -28 11 28 c6 15 15 27 20 27 5 0 2
-18 -6 -40 -9 -22 -20 -40 -25 -40 -8 0 -38 59 -38 75 0 16 20 1 28 -22z m95
20 c-7 -2 -13 -20 -13 -39 0 -19 -4 -34 -10 -34 -5 0 -10 18 -10 40 0 35 3 40
23 39 12 0 16 -3 10 -6z m85 -15 c3 -14 -3 -18 -27 -18 -24 0 -29 -4 -24 -16
4 -11 13 -14 32 -9 20 5 23 4 15 -5 -19 -20 -59 -8 -62 18 -2 13 -1 30 2 38 8
21 60 14 64 -8z m58 -12 l-26 -35 27 -4 c23 -3 21 -4 -9 -6 -44 -1 -45 1 -18
39 l20 29 -22 4 c-14 3 -8 5 16 6 l38 1 -26 -34z m182 12 c3 -14 -3 -18 -27
-18 -24 0 -29 -4 -24 -16 4 -11 13 -14 32 -9 20 5 23 4 15 -5 -19 -20 -59 -8
-62 18 -2 13 -1 30 2 38 8 21 60 14 64 -8z m72 11 c0 -6 -9 -8 -20 -4 -27 8
-26 -9 2 -27 12 -8 18 -19 14 -26 -8 -14 -56 -16 -56 -3 0 5 9 7 20 4 11 -3
20 -1 20 5 0 6 -9 14 -20 17 -20 6 -26 25 -13 38 10 11 53 8 53 -4z m110 0 c0
-6 -9 -8 -20 -4 -11 3 -20 2 -20 -4 0 -5 9 -13 21 -16 29 -10 20 -39 -14 -43
-15 -2 -27 1 -27 6 0 6 9 8 20 5 26 -7 25 4 -2 26 -12 10 -18 23 -14 29 9 15
56 16 56 1z m85 -29 c0 -31 -3 -35 -27 -38 -20 -2 -28 -9 -28 -23 0 -10 -4
-19 -10 -19 -6 0 -10 26 -10 59 l0 59 38 -1 c35 -2 37 -3 37 -37z m93 18 c3
-14 -3 -18 -27 -18 -24 0 -29 -4 -24 -16 3 -9 13 -14 24 -11 11 3 19 1 19 -4
0 -5 -11 -9 -25 -9 -32 0 -50 32 -35 61 14 25 63 23 68 -3z m72 12 c0 -5 -6
-7 -13 -4 -8 3 -20 -2 -27 -11 -10 -12 -10 -18 0 -30 7 -9 19 -14 27 -11 7 3
13 1 13 -5 0 -6 -12 -9 -27 -7 -29 3 -41 32 -29 64 6 16 56 20 56 4z m40 -30
c0 -22 -4 -40 -10 -40 -5 0 -10 18 -10 40 0 22 5 40 10 40 6 0 10 -18 10 -40z
m78 18 c3 -14 -3 -18 -23 -18 -17 0 -25 -5 -22 -12 2 -7 14 -13 26 -12 13 0
18 -3 12 -9 -5 -5 -19 -7 -32 -5 -28 4 -38 40 -18 64 16 19 53 14 57 -8z m72
12 c0 -5 -6 -7 -14 -4 -8 3 -17 1 -20 -5 -4 -5 3 -13 14 -16 30 -10 21 -39
-13 -43 -15 -2 -27 2 -27 8 0 7 8 9 20 5 26 -8 26 11 0 25 -25 14 -15 40 16
40 13 0 24 -4 24 -10z m218 -12 c3 -14 -3 -18 -23 -18 -17 0 -25 -5 -22 -12 2
-7 14 -13 26 -12 13 0 18 -3 12 -9 -5 -5 -19 -7 -32 -5 -28 4 -38 40 -18 64
16 19 53 14 57 -8z m160 -21 c3 -38 3 -38 -30 -35 -39 4 -45 28 -10 43 27 12
29 29 2 22 -11 -3 -17 -1 -14 5 3 5 16 8 27 6 18 -2 23 -11 25 -41z m142 -5
c0 -26 -5 -53 -12 -60 -14 -14 -58 -16 -58 -4 0 5 10 8 21 8 12 -1 24 5 26 12
3 7 -3 12 -14 12 -23 0 -43 18 -43 40 0 24 21 40 52 40 27 0 28 -2 28 -48z
m78 5 c3 -38 3 -38 -30 -35 -39 4 -45 28 -10 43 27 12 29 29 2 22 -11 -3 -17
-1 -14 5 3 5 16 8 27 6 18 -2 23 -11 25 -41z m120 0 c3 -38 3 -38 -30 -35 -39
4 -45 28 -10 43 27 12 29 29 2 22 -11 -3 -17 -1 -14 5 3 5 16 8 27 6 18 -2 23
-11 25 -41z m45 31 c4 -10 8 -9 16 2 5 8 13 11 17 7 4 -3 1 -13 -6 -22 -10
-12 -10 -18 0 -30 16 -20 5 -32 -14 -16 -10 8 -16 9 -21 1 -3 -5 -10 -10 -16
-10 -5 0 -4 9 3 20 10 16 10 24 0 40 -10 16 -10 20 2 20 8 0 17 -6 19 -12z
m67 -28 c0 -22 -4 -40 -10 -40 -5 0 -10 18 -10 40 0 22 5 40 10 40 6 0 10 -18
10 -40z m88 18 c3 -14 -3 -18 -23 -18 -17 0 -25 -5 -22 -12 2 -7 14 -13 26
-12 13 0 18 -3 12 -9 -5 -5 -19 -7 -32 -5 -28 4 -38 40 -18 64 16 19 53 14 57
-8z m-1478 -197 c0 -5 -8 -7 -19 -4 -32 8 -33 -14 -1 -37 33 -24 39 -45 14
-54 -23 -9 -54 -7 -54 2 0 5 10 8 21 8 32 -1 35 22 5 35 -25 12 -34 38 -19 52
10 10 53 8 53 -2z m275 -28 l8 -38 15 38 c8 20 18 37 23 37 4 0 13 -17 20 -37
l13 -38 9 38 c11 46 32 51 22 5 -18 -81 -41 -102 -51 -48 -4 17 -10 30 -14 30
-5 0 -11 -13 -15 -30 -10 -46 -28 -36 -46 25 -13 42 -13 55 -4 55 7 0 16 -17
20 -37z m-229 12 c9 -8 11 -15 5 -15 -15 0 -14 -57 2 -64 6 -3 3 -5 -8 -3 -14
2 -22 12 -25 37 -6 34 -3 60 7 60 2 0 11 -7 19 -15z m92 -48 c3 -38 3 -38 -30
-35 -42 4 -51 34 -14 44 14 3 23 10 20 16 -3 5 -12 7 -20 4 -8 -3 -14 -1 -14
5 0 6 12 9 28 7 23 -3 27 -8 30 -41z m55 36 c-7 -2 -13 -20 -13 -39 0 -19 -4
-34 -10 -34 -5 0 -10 18 -10 40 0 35 3 40 23 39 12 0 16 -3 10 -6z m265 -36
c3 -38 3 -38 -30 -35 -39 4 -45 28 -10 43 27 12 29 29 2 22 -11 -3 -17 -1 -14
5 3 5 16 8 27 6 18 -2 23 -11 25 -41z m132 32 c0 -6 -9 -7 -20 -4 -27 8 -26
-9 2 -27 12 -8 18 -19 14 -26 -8 -14 -56 -16 -56 -3 0 5 9 7 20 4 11 -3 20 -1
20 5 0 6 -9 14 -20 17 -11 3 -20 13 -20 22 0 28 -25 6 -28 -25 -5 -46 -22 -40
-22 7 l0 40 55 0 c30 0 55 -5 55 -10z m38 -301 c17 -17 17 -339 0 -356 -17
-17 -719 -17 -736 0 -17 17 -17 339 0 356 17 17 719 17 736 0z"/>
<path d="M4484 5015 c-8 -21 2 -45 20 -45 17 0 28 24 20 45 -4 8 -13 15 -20
15 -8 0 -17 -7 -20 -15z"/>
<path d="M4600 5020 c0 -5 7 -10 15 -10 8 0 15 5 15 10 0 6 -7 10 -15 10 -8 0
-15 -4 -15 -10z"/>
<path d="M4855 5020 c-3 -5 3 -10 15 -10 12 0 18 5 15 10 -3 6 -10 10 -15 10
-5 0 -12 -4 -15 -10z"/>
<path d="M5056 4705 c-8 -21 3 -45 20 -45 9 0 14 11 14 30 0 32 -23 42 -34 15z"/>
<path d="M3490 4705 c0 -46 13 -58 38 -33 17 17 15 65 -4 72 -29 11 -34 6 -34
-39z"/>
<path d="M3595 4710 c-3 -5 3 -10 15 -10 12 0 18 5 15 10 -3 6 -10 10 -15 10
-5 0 -12 -4 -15 -10z"/>
<path d="M3754 4705 c-8 -21 2 -45 20 -45 17 0 28 24 20 45 -4 8 -13 15 -20
15 -8 0 -17 -7 -20 -15z"/>
<path d="M4070 4710 c0 -5 7 -10 15 -10 8 0 15 5 15 10 0 6 -7 10 -15 10 -8 0
-15 -4 -15 -10z"/>
<path d="M4310 4710 c0 -5 7 -10 15 -10 8 0 15 5 15 10 0 6 -7 10 -15 10 -8 0
-15 -4 -15 -10z"/>
<path d="M4575 4699 c-8 -23 7 -45 24 -35 6 4 11 18 11 32 0 30 -26 32 -35 3z"/>
<path d="M4665 4710 c-3 -5 3 -10 15 -10 12 0 18 5 15 10 -3 6 -10 10 -15 10
-5 0 -12 -4 -15 -10z"/>
<path d="M4865 4710 c-3 -5 1 -10 9 -10 9 0 16 5 16 10 0 6 -4 10 -9 10 -6 0
-13 -4 -16 -10z"/>
<path d="M5155 4710 c-3 -5 1 -10 9 -10 9 0 16 5 16 10 0 6 -4 10 -9 10 -6 0
-13 -4 -16 -10z"/>
<path d="M5317 4683 c-12 -11 -8 -23 8 -23 8 0 15 7 15 15 0 16 -12 20 -23 8z"/>
<path d="M5444 4706 c-8 -22 3 -49 19 -43 6 2 12 14 12 27 0 27 -22 39 -31 16z"/>
<path d="M5537 4683 c-12 -11 -8 -23 8 -23 8 0 15 7 15 15 0 16 -12 20 -23 8z"/>
<path d="M5657 4683 c-12 -11 -8 -23 8 -23 8 0 15 7 15 15 0 16 -12 20 -23 8z"/>
<path d="M5855 4710 c-3 -5 1 -10 9 -10 9 0 16 5 16 10 0 6 -4 10 -9 10 -6 0
-13 -4 -16 -10z"/>
<path d="M4515 4439 c-4 -6 -5 -13 -2 -16 7 -7 27 6 27 18 0 12 -17 12 -25 -2z"/>
<path d="M4837 4443 c-12 -11 -8 -23 8 -23 8 0 15 7 15 15 0 16 -12 20 -23 8z"/>
<path d="M4440 3996 c0 -31 5 -56 10 -56 6 0 10 9 10 19 0 12 9 21 26 25 20 5
25 12 22 34 -2 22 -9 28 -35 30 l-33 3 0 -55z m55 19 c0 -11 -8 -21 -17 -23
-14 -3 -18 3 -18 23 0 20 4 26 18 23 9 -2 17 -12 17 -23z"/>
<path d="M4913 4015 c0 -22 2 -30 4 -17 2 12 2 30 0 40 -3 9 -5 -1 -4 -23z"/>
<path d="M4550 4009 l25 -11 -28 -10 c-37 -13 -33 -43 6 -44 26 -1 28 1 25 35
-3 30 -7 36 -28 38 l-25 3 25 -11z m20 -39 c0 -12 -28 -25 -36 -17 -9 9 6 27
22 27 8 0 14 -5 14 -10z"/>
<path d="M4611 3975 c2 -33 3 -35 6 -10 2 17 11 35 20 42 13 10 13 12 -6 10
-18 -1 -21 -7 -20 -42z"/>
<path d="M4713 3980 c0 -25 2 -35 4 -22 2 12 2 32 0 45 -2 12 -4 2 -4 -23z"/>
<path d="M4752 4008 c-25 -25 -6 -68 30 -68 10 0 18 4 18 8 0 5 -10 8 -22 8
-18 -1 -23 5 -23 24 0 19 5 25 23 24 12 0 22 3 22 8 0 12 -34 10 -48 -4z"/>
<path d="M4823 3980 c0 -25 2 -35 4 -22 2 12 2 32 0 45 -2 12 -4 2 -4 -23z"/>
<path d="M4900 3950 c0 -5 5 -10 10 -10 6 0 10 5 10 10 0 6 -4 10 -10 10 -5 0
-10 -4 -10 -10z"/>
<path d="M7572 5308 c-17 -17 -17 -1639 0 -1656 17 -17 2839 -17 2856 0 17 17
17 1639 0 1656 -17 17 -2839 17 -2856 0z m1318 -237 c0 -24 3 -28 20 -24 31 8
50 -15 50 -58 0 -53 -28 -54 -32 -1 -2 25 -8 37 -18 37 -10 0 -16 -12 -18 -37
-2 -25 -8 -38 -18 -38 -11 0 -14 16 -14 75 0 60 3 75 15 75 10 0 15 -10 15
-29z m118 11 c2 -7 -3 -12 -12 -12 -9 0 -16 7 -16 16 0 17 22 14 28 -4z m152
-57 c0 -60 -3 -75 -15 -75 -12 0 -15 15 -15 75 0 60 3 75 15 75 12 0 15 -15
15 -75z m-478 -7 l12 -33 13 33 c7 17 19 32 27 32 12 0 11 -9 -4 -47 -12 -32
-24 -48 -35 -48 -11 0 -24 17 -36 48 -16 41 -17 47 -3 47 8 0 20 -15 26 -32z
m158 13 c17 -33 12 -41 -26 -41 -23 0 -33 -4 -28 -11 3 -6 17 -9 31 -6 15 3
22 0 20 -7 -5 -16 -56 -20 -73 -5 -17 14 -19 60 -2 77 19 19 66 15 78 -7z
m170 -31 c0 -38 -4 -50 -15 -50 -11 0 -15 12 -15 50 0 38 4 50 15 50 11 0 15
-12 15 -50z m100 36 c0 -9 -7 -12 -18 -9 -23 6 -44 -19 -36 -42 5 -11 14 -15
30 -12 16 3 24 0 24 -9 0 -20 -49 -18 -72 3 -22 20 -23 32 -2 61 17 25 74 31
74 8z m148 2 c7 -7 12 -20 12 -30 0 -14 -8 -18 -36 -18 -23 0 -33 -4 -28 -11
3 -6 17 -9 30 -6 16 3 24 0 24 -9 0 -9 -12 -14 -35 -14 -44 0 -65 34 -47 75
13 27 58 35 80 13z m92 -2 c0 -9 -7 -12 -20 -9 -26 7 -26 -14 1 -22 34 -11 21
-49 -18 -53 -24 -2 -33 1 -33 11 0 10 7 13 20 10 11 -3 20 -1 20 5 0 6 -9 14
-20 17 -19 6 -27 35 -13 48 13 13 63 7 63 -7z m-1426 -281 c-4 -8 -10 -15 -15
-15 -4 0 -6 7 -3 15 4 8 10 15 15 15 4 0 6 -7 3 -15z m646 -45 c0 -33 -4 -60
-10 -60 -6 0 -10 27 -10 60 0 33 4 60 10 60 6 0 10 -27 10 -60z m390 40 c0
-14 7 -20 24 -20 13 0 27 -7 30 -16 9 -25 7 -64 -4 -64 -5 0 -10 13 -10 29 0
17 -5 33 -11 37 -14 8 -29 -14 -29 -43 0 -13 -4 -23 -10 -23 -6 0 -10 27 -10
60 0 33 4 60 10 60 6 0 10 -9 10 -20z m100 10 c0 -5 -7 -10 -15 -10 -8 0 -15
5 -15 10 0 6 7 10 15 10 8 0 15 -4 15 -10z m110 -50 c0 -33 -4 -60 -10 -60 -6
0 -10 27 -10 60 0 33 4 60 10 60 6 0 10 -27 10 -60z m290 -1 l0 -60 -37 3
c-36 3 -38 5 -38 38 0 31 3 35 28 38 19 2 27 9 27 23 0 10 5 19 10 19 6 0 10
-27 10 -61z m160 1 c0 -33 -4 -60 -10 -60 -6 0 -10 27 -10 60 0 33 4 60 10 60
6 0 10 -27 10 -60z m340 0 c0 -33 -4 -60 -10 -60 -6 0 -10 27 -10 60 0 33 4
60 10 60 6 0 10 -27 10 -60z m200 50 c0 -5 -4 -10 -10 -10 -5 0 -10 5 -10 10
0 6 5 10 10 10 6 0 10 -4 10 -10z m-2319 -10 c43 -24 11 -100 -43 -100 -27 0
-28 1 -28 55 0 52 1 55 26 55 14 0 34 -5 45 -10z m100 -36 c11 -14 13 -14 21
0 9 17 58 22 58 7 0 -5 -8 -7 -19 -4 -21 5 -34 -18 -24 -43 3 -9 13 -14 24
-11 11 3 19 1 19 -4 0 -18 -49 -9 -60 11 -12 23 -75 30 -67 8 2 -7 14 -13 26
-12 11 0 21 -3 21 -8 0 -12 -44 -10 -58 4 -25 25 -7 68 29 68 9 0 22 -7 30
-16z m167 -21 c3 -28 -1 -33 -23 -39 -29 -7 -55 10 -55 35 0 25 22 42 50 39
20 -2 26 -9 28 -35z m34 5 c2 -21 8 -33 18 -33 10 0 16 12 18 33 5 46 22 40
22 -8 0 -39 -1 -40 -34 -40 -36 0 -46 12 -46 56 0 36 18 29 22 -8z m96 5 l10
-28 11 28 c9 22 17 27 46 27 33 0 35 -1 21 -16 -9 -8 -16 -26 -16 -40 0 -40
-20 -27 -21 14 l-1 37 -15 -37 c-9 -21 -20 -38 -25 -38 -8 0 -38 59 -38 75 0
16 20 1 28 -22z m180 5 c3 -14 -3 -18 -27 -18 -24 0 -29 -4 -24 -16 3 -9 13
-14 24 -11 11 3 19 1 19 -4 0 -5 -11 -9 -25 -9 -32 0 -50 32 -35 61 14 25 63
23 68 -3z m57 -12 l-26 -35 28 -4 c20 -3 16 -4 -15 -6 l-43 -1 26 34 26 34
-23 5 c-15 3 -9 5 15 6 l38 1 -26 -34z m183 12 c3 -14 -3 -18 -27 -18 -24 0
-29 -4 -24 -16 3 -9 13 -14 24 -11 11 3 19 1 19 -4 0 -5 -11 -9 -25 -9 -32 0
-50 32 -35 61 14 25 63 23 68 -3z m62 12 c0 -5 -7 -7 -15 -4 -20 8 -19 -13 2
-24 21 -12 10 -42 -17 -42 -11 0 -20 4 -20 10 0 5 7 7 15 4 20 -8 19 13 -2 24
-21 12 -10 42 17 42 11 0 20 -4 20 -10z m81 -17 l11 -28 10 28 c8 23 28 38 28
22 0 -16 -30 -75 -38 -75 -5 0 -16 18 -25 40 -8 22 -11 40 -6 40 5 0 14 -12
20 -27z m127 5 c3 -14 -3 -18 -27 -18 -24 0 -29 -4 -24 -16 4 -11 13 -14 32
-9 20 5 23 4 15 -5 -19 -20 -59 -8 -62 18 -2 13 -1 30 2 38 8 21 60 14 64 -8z
m122 -18 c0 -22 -4 -40 -10 -40 -5 0 -10 18 -10 40 0 22 5 40 10 40 6 0 10
-18 10 -40z m90 30 c0 -5 -10 -9 -22 -7 -18 2 -23 -3 -23 -23 0 -20 4 -25 23
-23 13 2 21 -1 17 -7 -8 -14 -38 -13 -53 2 -27 27 -6 68 35 68 13 0 23 -4 23
-10z m109 -2 c11 -10 14 -10 18 0 5 14 53 17 53 2 0 -5 -6 -7 -14 -4 -8 3 -17
1 -20 -5 -4 -5 3 -13 14 -16 30 -10 21 -39 -13 -43 -15 -2 -27 2 -27 8 0 7 8
9 20 5 23 -7 27 10 5 22 -21 12 -87 3 -82 -11 2 -6 14 -11 26 -10 11 0 21 -3
21 -8 0 -12 -44 -10 -58 4 -37 37 19 92 57 56z m289 0 c20 -20 14 -28 -19 -28
-20 0 -29 -4 -26 -12 2 -7 14 -13 26 -12 11 0 21 -3 21 -8 0 -12 -44 -10 -58
4 -7 7 -12 19 -12 28 0 9 5 21 12 28 7 7 19 12 28 12 9 0 21 -5 28 -12z m160
-30 c3 -36 2 -38 -26 -38 -17 0 -32 6 -35 14 -6 16 11 36 30 36 7 0 13 5 13
11 0 6 -9 8 -21 4 -15 -5 -19 -4 -14 5 4 6 17 10 28 8 17 -2 23 -11 25 -40z
m142 -6 c0 -26 -5 -53 -12 -60 -14 -14 -58 -16 -58 -4 0 5 10 8 21 8 12 -1 24
5 26 12 3 7 -3 12 -14 12 -23 0 -43 18 -43 40 0 24 21 40 52 40 27 0 28 -2 28
-48z m78 6 c3 -36 2 -38 -26 -38 -17 0 -32 6 -35 14 -6 16 11 36 30 36 7 0 13
5 13 11 0 6 -9 8 -21 4 -15 -5 -19 -4 -14 5 4 6 17 10 28 8 17 -2 23 -11 25
-40z m120 0 c3 -36 2 -38 -26 -38 -17 0 -32 6 -35 14 -6 16 11 36 30 36 7 0
13 5 13 11 0 6 -9 8 -21 4 -15 -5 -19 -4 -14 5 4 6 17 10 28 8 17 -2 23 -11
25 -40z m45 30 c4 -10 7 -10 18 0 20 19 31 14 17 -8 -10 -16 -10 -24 0 -40 10
-16 10 -20 -2 -20 -8 0 -17 6 -20 13 -5 10 -7 10 -12 0 -3 -7 -13 -13 -21 -13
-14 0 -13 3 2 20 14 16 16 23 7 32 -7 7 -12 16 -12 20 0 13 18 9 23 -4z m77
-28 c0 -22 -4 -40 -10 -40 -5 0 -10 18 -10 40 0 22 5 40 10 40 6 0 10 -18 10
-40z m78 28 c20 -20 14 -28 -19 -28 -20 0 -29 -4 -26 -12 2 -7 14 -13 26 -12
11 0 21 -3 21 -8 0 -12 -44 -10 -58 4 -7 7 -12 19 -12 28 0 9 5 21 12 28 7 7
19 12 28 12 9 0 21 -5 28 -12z m-1498 -207 c0 -5 -8 -7 -19 -4 -32 8 -33 -14
-1 -37 33 -24 39 -45 14 -54 -23 -9 -54 -7 -54 2 0 5 10 8 21 8 32 -1 35 22 5
35 -25 12 -34 38 -19 52 10 10 53 8 53 -2z m275 -28 l8 -38 15 38 c8 20 18 37
23 37 4 0 13 -17 20 -37 l13 -38 9 38 c11 46 32 51 22 5 -18 -81 -41 -102 -51
-48 -4 17 -10 30 -14 30 -5 0 -11 -13 -15 -30 -10 -46 -28 -36 -46 25 -13 42
-13 55 -4 55 7 0 16 -17 20 -37z m-229 12 c9 -8 11 -15 5 -15 -15 0 -14 -57 2
-64 6 -3 3 -5 -8 -3 -14 2 -22 12 -25 37 -6 34 -3 60 7 60 2 0 11 -7 19 -15z
m92 -48 c3 -38 3 -38 -30 -35 -42 4 -51 34 -14 44 14 3 23 10 20 16 -3 5 -12
7 -20 4 -8 -3 -14 -1 -14 5 0 6 12 9 28 7 23 -3 27 -8 30 -41z m55 36 c-7 -2
-13 -20 -13 -39 0 -19 -4 -34 -10 -34 -5 0 -10 18 -10 40 0 35 3 40 23 39 12
0 16 -3 10 -6z m265 -36 c3 -38 3 -38 -30 -35 -39 4 -45 28 -10 43 27 12 29
29 2 22 -11 -3 -17 -1 -14 5 3 5 16 8 27 6 18 -2 23 -11 25 -41z m132 32 c0
-6 -9 -7 -20 -4 -27 8 -26 -9 2 -27 12 -8 18 -19 14 -26 -8 -14 -56 -16 -56
-3 0 5 9 7 20 4 11 -3 20 -1 20 5 0 6 -9 14 -20 17 -11 3 -20 13 -20 22 0 28
-25 6 -28 -25 -5 -46 -22 -40 -22 7 l0 40 55 0 c30 0 55 -5 55 -10z m38 -301
c8 -8 12 -62 12 -178 0 -116 -4 -170 -12 -178 -17 -17 -719 -17 -736 0 -8 8
-12 62 -12 178 0 116 4 170 12 178 17 17 719 17 736 0z"/>
<path d="M8785 5020 c-3 -5 3 -10 15 -10 12 0 18 5 15 10 -3 6 -10 10 -15 10
-5 0 -12 -4 -15 -10z"/>
<path d="M9205 5020 c-3 -5 3 -10 14 -10 12 0 21 5 21 10 0 6 -6 10 -14 10 -8
0 -18 -4 -21 -10z"/>
<path d="M9396 4705 c-7 -20 3 -45 19 -45 16 0 29 35 20 50 -9 15 -32 12 -39
-5z"/>
<path d="M7790 4705 c0 -46 13 -58 38 -33 25 25 8 78 -25 78 -9 0 -13 -15 -13
-45z"/>
<path d="M7895 4710 c-3 -5 3 -10 15 -10 12 0 18 5 15 10 -3 6 -10 10 -15 10
-5 0 -12 -4 -15 -10z"/>
<path d="M8054 4706 c-8 -22 3 -49 19 -43 6 2 12 14 12 27 0 27 -22 39 -31 16z"/>
<path d="M8365 4710 c-3 -5 3 -10 15 -10 12 0 18 5 15 10 -3 6 -10 10 -15 10
-5 0 -12 -4 -15 -10z"/>
<path d="M8605 4710 c-3 -5 3 -10 15 -10 12 0 18 5 15 10 -3 6 -10 10 -15 10
-5 0 -12 -4 -15 -10z"/>
<path d="M8880 4710 c0 -5 7 -10 15 -10 8 0 15 5 15 10 0 6 -7 10 -15 10 -8 0
-15 -4 -15 -10z"/>
<path d="M9205 4710 c-3 -5 3 -10 15 -10 12 0 18 5 15 10 -3 6 -10 10 -15 10
-5 0 -12 -4 -15 -10z"/>
<path d="M9495 4710 c-3 -5 3 -10 15 -10 12 0 18 5 15 10 -3 6 -10 10 -15 10
-5 0 -12 -4 -15 -10z"/>
<path d="M9657 4684 c-8 -8 1 -24 14 -24 5 0 9 7 9 15 0 15 -12 20 -23 9z"/>
<path d="M9784 4706 c-8 -22 3 -49 19 -43 6 2 12 14 12 27 0 27 -22 39 -31 16z"/>
<path d="M9877 4684 c-8 -8 1 -24 14 -24 5 0 9 7 9 15 0 15 -12 20 -23 9z"/>
<path d="M9997 4684 c-8 -8 1 -24 14 -24 5 0 9 7 9 15 0 15 -12 20 -23 9z"/>
<path d="M10195 4710 c-3 -5 3 -10 15 -10 12 0 18 5 15 10 -3 6 -10 10 -15 10
-5 0 -12 -4 -15 -10z"/>
<path d="M8835 4439 c-4 -6 -5 -13 -2 -16 7 -7 27 6 27 18 0 12 -17 12 -25 -2z"/>
<path d="M9157 4443 c-12 -11 -8 -23 8 -23 8 0 15 7 15 15 0 16 -12 20 -23 8z"/>
<path d="M8760 3996 c0 -31 5 -56 10 -56 6 0 10 9 10 19 0 12 9 21 26 25 20 5
25 12 22 34 -2 22 -9 28 -35 30 l-33 3 0 -55z m55 19 c0 -11 -8 -21 -17 -23
-14 -3 -18 3 -18 23 0 20 4 26 18 23 9 -2 17 -12 17 -23z"/>
<path d="M9233 4015 c0 -22 2 -30 4 -17 2 12 2 30 0 40 -3 9 -5 -1 -4 -23z"/>
<path d="M8870 4009 l25 -11 -28 -10 c-37 -13 -33 -43 6 -44 26 -1 28 1 25 35
-3 30 -7 36 -28 38 l-25 3 25 -11z m20 -39 c0 -12 -28 -25 -36 -17 -9 9 6 27
22 27 8 0 14 -5 14 -10z"/>
<path d="M8931 3975 c2 -33 3 -35 6 -10 2 17 11 35 20 42 13 10 13 12 -6 10
-18 -1 -21 -7 -20 -42z"/>
<path d="M9033 3980 c0 -25 2 -35 4 -22 2 12 2 32 0 45 -2 12 -4 2 -4 -23z"/>
<path d="M9072 4008 c-25 -25 -6 -68 30 -68 10 0 18 4 18 8 0 5 -10 8 -22 8
-18 -1 -23 5 -23 24 0 19 5 25 23 24 12 0 22 3 22 8 0 12 -34 10 -48 -4z"/>
<path d="M9143 3980 c0 -25 2 -35 4 -22 2 12 2 32 0 45 -2 12 -4 2 -4 -23z"/>
<path d="M9220 3950 c0 -5 5 -10 10 -10 6 0 10 5 10 10 0 6 -4 10 -10 10 -5 0
-10 -4 -10 -10z"/>
<path d="M11892 5308 c-17 -17 -17 -1639 0 -1656 17 -17 2839 -17 2856 0 17
17 17 1639 0 1656 -17 17 -2839 17 -2856 0z m1498 -232 c0 -19 6 -25 28 -28
25 -3 27 -7 30 -50 2 -38 0 -48 -12 -48 -12 0 -16 11 -16 41 0 52 -24 48 -28
-4 -2 -24 -8 -37 -18 -37 -11 0 -14 16 -14 75 0 60 3 75 15 75 9 0 15 -9 15
-24z m110 9 c0 -8 -7 -15 -15 -15 -16 0 -20 12 -8 23 11 12 23 8 23 -8z m-450
-20 c0 -8 7 -15 15 -15 8 0 15 -4 15 -10 0 -5 -7 -10 -15 -10 -10 0 -15 -10
-15 -30 0 -20 5 -30 15 -30 8 0 15 -4 15 -10 0 -5 -11 -10 -25 -10 -25 0 -25
1 -40 74 -5 22 11 56 25 56 6 0 10 -7 10 -15z m-50 -29 c0 -9 -7 -12 -20 -9
-26 7 -26 -14 1 -22 34 -11 21 -49 -18 -53 -24 -2 -33 1 -33 11 0 10 7 13 20
10 11 -3 20 -1 20 5 0 6 -9 14 -20 17 -19 6 -27 35 -13 48 13 13 63 7 63 -7z
m168 -38 l3 -48 -39 0 c-28 0 -42 5 -46 16 -8 21 11 44 35 44 11 0 19 5 19 11
0 7 -10 9 -25 5 -14 -4 -25 -3 -25 2 0 16 14 23 45 20 28 -3 30 -6 33 -50z
m92 43 c0 -5 -7 -11 -15 -15 -9 -3 -15 -19 -15 -41 0 -24 -4 -35 -15 -35 -11
0 -15 12 -15 50 0 49 1 50 30 50 17 0 30 -4 30 -9z m80 -5 c0 -9 -9 -12 -27
-9 -27 4 -27 4 -9 -11 11 -9 24 -16 29 -16 4 0 7 -10 5 -22 -2 -19 -9 -23 -35
-23 -18 0 -33 5 -33 10 1 6 10 9 20 7 11 -2 20 2 20 7 0 6 -6 11 -14 11 -7 0
-19 7 -26 15 -10 12 -10 18 0 30 16 19 70 20 70 1z m160 -36 c0 -38 -4 -50
-15 -50 -11 0 -15 12 -15 50 0 38 4 50 15 50 11 0 15 -12 15 -50z m124 28 c17
-28 -4 -72 -37 -76 -21 -3 -27 -9 -27 -28 0 -15 -6 -24 -15 -24 -12 0 -15 15
-15 76 l0 75 41 -3 c26 -2 46 -10 53 -20z m86 8 c0 -9 -7 -12 -20 -9 -11 3
-20 0 -20 -6 0 -6 6 -11 14 -11 7 0 19 -7 26 -15 10 -12 10 -18 0 -30 -16 -19
-70 -20 -70 -1 0 9 9 12 28 9 l27 -5 -29 24 c-37 31 -30 58 14 58 19 0 30 -5
30 -14z m-1230 -281 c-7 -8 -17 -15 -22 -15 -6 0 -5 7 2 15 7 8 17 15 22 15 6
0 5 -7 -2 -15z m650 -45 c0 -33 -4 -60 -10 -60 -6 0 -10 27 -10 60 0 33 4 60
10 60 6 0 10 -27 10 -60z m560 41 c0 -13 8 -21 23 -23 18 -2 23 -10 25 -40 2
-21 -1 -38 -7 -38 -5 0 -11 14 -13 32 -4 46 -28 49 -28 4 0 -20 -4 -36 -10
-36 -6 0 -10 27 -10 60 0 33 4 60 10 60 6 0 10 -9 10 -19z m90 9 c0 -5 -4 -10
-10 -10 -5 0 -10 5 -10 10 0 6 5 10 10 10 6 0 10 -4 10 -10z m300 -51 l0 -60
-37 3 c-36 3 -38 5 -38 38 0 31 3 35 28 38 19 2 27 9 27 23 0 10 5 19 10 19 6
0 10 -27 10 -61z m160 1 c0 -33 -4 -60 -10 -60 -6 0 -10 27 -10 60 0 33 4 60
10 60 6 0 10 -27 10 -60z m-1836 28 c9 -12 16 -28 16 -35 0 -23 -39 -53 -70
-53 -30 0 -30 1 -30 55 l0 55 34 0 c25 0 39 -7 50 -22z m1032 -3 c9 -8 11 -15
5 -15 -15 0 -14 -57 2 -64 6 -3 3 -5 -8 -3 -14 2 -22 12 -25 37 -6 34 -3 60 7
60 2 0 11 -7 19 -15z m-938 -27 c3 -14 -3 -18 -27 -18 -24 0 -29 -4 -24 -16 4
-11 13 -14 32 -9 20 5 23 4 15 -5 -19 -20 -59 -8 -62 18 -2 13 -1 30 2 38 8
21 60 14 64 -8z m82 12 c0 -5 -10 -9 -22 -7 -18 2 -23 -3 -23 -23 0 -20 4 -25
23 -23 13 2 21 -1 17 -7 -8 -14 -38 -13 -53 2 -27 27 -6 68 35 68 13 0 23 -4
23 -10z m84 -12 c15 -24 -3 -52 -37 -56 -33 -4 -53 28 -37 59 14 25 58 23 74
-3z m36 -7 c0 -17 5 -33 11 -37 14 -8 29 14 29 44 0 33 38 29 51 -5 l11 -28
10 28 c8 23 28 38 28 22 0 -16 -30 -75 -38 -75 -5 0 -16 17 -25 38 l-15 37 -1
-37 c-1 -36 -3 -38 -35 -38 -22 0 -36 6 -40 16 -9 25 -7 64 4 64 6 0 10 -13
10 -29z m188 18 c-11 -6 -18 -22 -18 -39 0 -17 -4 -30 -10 -30 -5 0 -10 18
-10 40 0 37 2 40 28 40 23 -1 24 -2 10 -11z m80 -1 c20 -20 14 -28 -19 -28
-20 0 -29 -4 -26 -12 2 -7 14 -13 26 -12 11 0 21 -3 21 -8 0 -12 -44 -10 -58
4 -24 24 -7 68 28 68 9 0 21 -5 28 -12z m72 -7 c-5 -11 -15 -23 -20 -26 -17
-10 -11 -23 13 -28 13 -3 7 -5 -16 -6 l-39 -1 22 34 21 35 -23 4 c-15 3 -9 5
15 6 34 1 37 -1 27 -18z m168 -3 c3 -14 -3 -18 -23 -18 -17 0 -25 -5 -22 -12
2 -7 14 -13 26 -12 13 0 18 -3 12 -9 -5 -5 -19 -7 -32 -5 -28 4 -38 40 -18 64
16 19 53 14 57 -8z m72 12 c0 -5 -6 -7 -14 -4 -8 3 -17 1 -20 -5 -4 -5 3 -13
14 -16 30 -10 21 -39 -13 -43 -15 -2 -27 2 -27 8 0 7 8 9 20 5 26 -8 26 11 0
25 -25 14 -15 40 16 40 13 0 24 -4 24 -10z m110 0 c0 -5 -6 -7 -14 -4 -8 3
-17 1 -20 -5 -4 -5 3 -13 14 -16 30 -10 21 -39 -13 -43 -15 -2 -27 2 -27 8 0
7 8 9 20 5 26 -8 26 11 0 25 -25 14 -15 40 16 40 13 0 24 -4 24 -10z m128 -32
c3 -36 2 -38 -26 -38 -17 0 -32 6 -35 14 -6 16 11 36 30 36 7 0 13 5 13 11 0
6 -9 8 -21 4 -15 -5 -19 -4 -14 5 4 6 17 10 28 8 17 -2 23 -11 25 -40z m58 26
c-9 -8 -16 -26 -16 -40 0 -13 -4 -24 -10 -24 -5 0 -10 18 -10 40 0 36 2 40 26
40 23 0 24 -1 10 -16z m74 6 c0 -5 -6 -7 -14 -4 -8 3 -17 1 -20 -5 -4 -5 3
-13 14 -16 30 -10 21 -39 -13 -43 -15 -2 -27 2 -27 8 0 7 8 9 20 5 26 -8 26
11 0 25 -25 14 -15 40 16 40 13 0 24 -4 24 -10z m130 -30 c0 -22 -4 -40 -10
-40 -5 0 -10 18 -10 40 0 22 5 40 10 40 6 0 10 -18 10 -40z m90 20 c14 -26 -3
-60 -30 -60 -13 0 -20 -7 -20 -20 0 -11 -4 -20 -10 -20 -6 0 -10 27 -10 60 0
60 0 60 30 60 19 0 33 -7 40 -20z m70 10 c0 -5 -6 -7 -14 -4 -8 3 -17 1 -20
-5 -4 -5 3 -13 14 -16 30 -10 21 -39 -13 -43 -15 -2 -27 2 -27 8 0 7 8 9 20 5
26 -8 26 11 0 25 -25 14 -15 40 16 40 13 0 24 -4 24 -10z m218 -2 c20 -20 14
-28 -19 -28 -20 0 -29 -4 -26 -12 2 -7 14 -13 26 -12 11 0 21 -3 21 -8 0 -12
-44 -10 -58 4 -24 24 -7 68 28 68 9 0 21 -5 28 -12z m160 -30 c3 -36 2 -38
-26 -38 -17 0 -32 6 -35 14 -6 16 11 36 30 36 7 0 13 5 13 11 0 6 -9 8 -21 4
-15 -5 -19 -4 -14 5 4 6 17 10 28 8 17 -2 23 -11 25 -40z m-1388 -218 c0 -33
-4 -60 -10 -60 -6 0 -10 27 -10 60 0 33 4 60 10 60 6 0 10 -27 10 -60z m190
50 c0 -5 -4 -10 -10 -10 -5 0 -10 5 -10 10 0 6 5 10 10 10 6 0 10 -4 10 -10z
m210 -9 c0 -5 -8 -7 -19 -4 -21 5 -42 -18 -22 -25 8 -3 22 -13 33 -24 15 -15
17 -22 7 -34 -13 -16 -69 -19 -69 -3 0 6 9 8 20 4 39 -12 44 7 9 35 -29 24
-31 30 -20 44 14 17 61 22 61 7z m271 -28 l12 -38 12 34 c16 47 32 50 41 7 6
-35 24 -41 24 -8 0 21 17 48 24 41 10 -10 -25 -110 -37 -106 -6 2 -15 19 -21
38 l-10 34 -10 -37 c-13 -50 -32 -48 -46 3 -6 22 -14 47 -17 55 -3 8 -1 14 5
14 6 0 16 -17 23 -37z m-225 12 c9 -8 11 -15 5 -15 -15 0 -14 -57 2 -64 6 -3
3 -5 -8 -3 -14 2 -22 12 -25 37 -6 34 -3 60 7 60 2 0 11 -7 19 -15z m-566 -46
c0 -56 -14 -79 -50 -79 -17 0 -30 5 -30 11 0 6 7 8 16 5 9 -4 23 -1 32 6 13
11 11 14 -14 18 -21 4 -30 12 -32 28 -6 39 5 52 43 52 34 0 35 -1 35 -41z m78
-2 c3 -38 3 -38 -30 -35 -42 4 -51 34 -14 44 14 3 26 11 26 16 0 6 -9 8 -20 5
-11 -3 -20 -1 -20 5 0 5 12 8 28 6 23 -3 27 -8 30 -41z m120 0 c3 -38 3 -38
-30 -35 -42 4 -51 34 -14 44 14 3 26 11 26 16 0 6 -9 8 -20 5 -11 -3 -20 -1
-20 5 0 5 12 8 28 6 23 -3 27 -8 30 -41z m39 27 c5 -15 7 -15 15 0 13 24 31
20 18 -4 -8 -14 -8 -26 0 -40 8 -14 8 -20 0 -20 -6 0 -13 7 -17 16 -5 15 -7
15 -15 0 -5 -9 -14 -16 -20 -16 -7 0 -6 6 2 15 10 12 10 21 2 40 -8 16 -8 25
-1 25 5 0 12 -7 16 -16z m73 -24 c0 -22 -4 -40 -10 -40 -5 0 -10 18 -10 40 0
22 5 40 10 40 6 0 10 -18 10 -40z m88 18 c3 -14 -3 -18 -27 -18 -24 0 -29 -4
-24 -16 3 -9 13 -14 24 -11 11 3 19 1 19 -4 0 -5 -11 -9 -25 -9 -32 0 -50 32
-35 61 14 25 63 23 68 -3z m250 -20 c3 -36 2 -38 -26 -38 -17 0 -32 6 -35 14
-6 16 11 36 30 36 7 0 13 5 13 11 0 6 -9 8 -21 4 -15 -5 -19 -4 -14 5 4 6 17
10 28 8 17 -2 23 -11 25 -40z m58 26 c-9 -8 -16 -26 -16 -40 0 -13 -4 -24 -10
-24 -5 0 -10 18 -10 40 0 36 2 40 26 40 23 0 24 -1 10 -16z m272 -27 c3 -38 3
-38 -30 -35 -42 4 -51 34 -14 44 14 3 26 11 26 16 0 6 -9 8 -20 5 -11 -3 -20
-1 -20 5 0 5 12 8 28 6 23 -3 27 -8 30 -41z m55 36 c-7 -2 -13 -20 -13 -39 0
-19 -4 -34 -10 -34 -5 0 -10 18 -10 40 0 35 3 40 23 39 12 0 16 -3 10 -6z m77
-4 c0 -6 -9 -8 -20 -4 -27 8 -26 -9 2 -27 12 -8 18 -19 14 -26 -8 -14 -56 -16
-56 -3 0 5 9 7 20 4 11 -3 20 -1 20 5 0 6 -9 14 -20 17 -20 6 -26 25 -13 38
10 11 53 8 53 -4z m-232 -301 c8 -8 12 -62 12 -178 0 -116 -4 -170 -12 -178
-17 -17 -719 -17 -736 0 -17 17 -17 339 0 356 17 17 719 17 736 0z"/>
<path d="M13110 4980 c0 -5 7 -10 15 -10 8 0 15 5 15 10 0 6 -7 10 -15 10 -8
0 -15 -4 -15 -10z"/>
<path d="M13557 5015 c-9 -22 3 -46 22 -43 10 2 16 13 16 28 0 28 -29 40 -38
15z"/>
<path d="M14016 4705 c-7 -20 3 -45 19 -45 16 0 29 35 20 50 -9 15 -32 12 -39
-5z"/>
<path d="M12340 4705 c0 -32 4 -45 14 -45 17 0 46 27 46 41 0 23 -22 49 -40
49 -17 0 -20 -7 -20 -45z"/>
<path d="M12450 4710 c0 -5 7 -10 15 -10 8 0 15 5 15 10 0 6 -7 10 -15 10 -8
0 -15 -4 -15 -10z"/>
<path d="M12607 4705 c-9 -22 3 -46 22 -43 10 2 16 13 16 28 0 28 -29 40 -38
15z"/>
<path d="M12925 4710 c-3 -5 3 -10 15 -10 12 0 18 5 15 10 -3 6 -10 10 -15 10
-5 0 -12 -4 -15 -10z"/>
<path d="M13165 4710 c-3 -5 1 -10 9 -10 9 0 16 5 16 10 0 6 -4 10 -9 10 -6 0
-13 -4 -16 -10z"/>
<path d="M13477 4684 c-8 -8 1 -24 14 -24 5 0 9 7 9 15 0 15 -12 20 -23 9z"/>
<path d="M13827 4713 c-13 -12 -7 -53 7 -53 17 0 28 24 20 45 -7 16 -17 19
-27 8z"/>
<path d="M14115 4710 c-3 -5 3 -10 15 -10 12 0 18 5 15 10 -3 6 -10 10 -15 10
-5 0 -12 -4 -15 -10z"/>
<path d="M14277 4684 c-8 -8 1 -24 14 -24 5 0 9 7 9 15 0 15 -12 20 -23 9z"/>
<path d="M12746 4465 c-7 -20 3 -45 19 -45 16 0 29 35 20 50 -9 15 -32 12 -39
-5z"/>
<path d="M12845 4439 c-4 -6 -5 -13 -2 -16 7 -7 27 6 27 18 0 12 -17 12 -25
-2z"/>
<path d="M12965 4439 c-4 -6 -5 -13 -2 -16 7 -7 27 6 27 18 0 12 -17 12 -25
-2z"/>
<path d="M13155 4470 c-3 -5 3 -10 15 -10 12 0 18 5 15 10 -3 6 -10 10 -15 10
-5 0 -12 -4 -15 -10z"/>
<path d="M13417 4444 c-8 -8 1 -24 14 -24 5 0 9 7 9 15 0 15 -12 20 -23 9z"/>
<path d="M13745 4439 c-4 -6 -5 -13 -2 -16 7 -7 27 6 27 18 0 12 -17 12 -25
-2z"/>
<path d="M13080 3996 c0 -31 5 -56 10 -56 6 0 10 9 10 19 0 12 9 21 26 25 20
5 25 12 22 34 -2 22 -9 28 -35 30 l-33 3 0 -55z m55 19 c0 -11 -8 -21 -17 -23
-14 -3 -18 3 -18 23 0 20 4 26 18 23 9 -2 17 -12 17 -23z"/>
<path d="M13553 4015 c0 -22 2 -30 4 -17 2 12 2 30 0 40 -3 9 -5 -1 -4 -23z"/>
<path d="M13190 4009 l25 -11 -28 -10 c-37 -13 -33 -43 6 -44 26 -1 28 1 25
35 -3 30 -7 36 -28 38 l-25 3 25 -11z m20 -39 c0 -12 -28 -25 -36 -17 -9 9 6
27 22 27 8 0 14 -5 14 -10z"/>
<path d="M13251 3975 c2 -33 3 -35 6 -10 2 17 11 35 20 42 13 10 13 12 -6 10
-18 -1 -21 -7 -20 -42z"/>
<path d="M13353 3980 c0 -25 2 -35 4 -22 2 12 2 32 0 45 -2 12 -4 2 -4 -23z"/>
<path d="M13392 4008 c-25 -25 -6 -68 30 -68 10 0 18 4 18 8 0 5 -10 8 -22 8
-18 -1 -23 5 -23 24 0 19 5 25 23 24 12 0 22 3 22 8 0 12 -34 10 -48 -4z"/>
<path d="M13463 3980 c0 -25 2 -35 4 -22 2 12 2 32 0 45 -2 12 -4 2 -4 -23z"/>
<path d="M13540 3950 c0 -5 5 -10 10 -10 6 0 10 5 10 10 0 6 -4 10 -10 10 -5
0 -10 -4 -10 -10z"/>
<path d="M0 630 l0 -630 9600 0 9600 0 0 630 0 630 -9600 0 -9600 0 0 -630z
m8380 430 c0 -33 -4 -60 -10 -60 -6 0 -10 27 -10 60 0 33 4 60 10 60 6 0 10
-27 10 -60z m50 50 c0 -5 -7 -10 -15 -10 -8 0 -15 5 -15 10 0 6 7 10 15 10 8
0 15 -4 15 -10z m230 -5 c-7 -8 -17 -15 -22 -15 -6 0 -5 7 2 15 7 8 17 15 22
15 6 0 5 -7 -2 -15z m140 0 c-7 -8 -16 -15 -21 -15 -5 0 -6 7 -3 15 4 8 13 15
21 15 13 0 13 -3 3 -15z m254 0 c-4 -8 -10 -15 -15 -15 -4 0 -6 7 -3 15 4 8
10 15 15 15 4 0 6 -7 3 -15z m86 0 c-7 -8 -16 -15 -21 -15 -5 0 -6 7 -3 15 4
8 13 15 21 15 13 0 13 -3 3 -15z m364 -1 c4 -12 2 -15 -9 -11 -8 4 -17 2 -20
-2 -2 -5 4 -11 15 -14 15 -4 20 -14 20 -41 0 -33 -2 -36 -29 -36 -16 0 -31 6
-34 14 -6 16 11 36 30 36 7 0 13 5 13 11 0 6 -8 8 -20 4 -18 -6 -18 -4 -9 24
12 34 33 41 43 15z m270 1 c3 -8 1 -15 -3 -15 -5 0 -11 7 -15 15 -3 8 -1 15 3
15 5 0 11 -7 15 -15z m1026 -45 c0 -33 -4 -60 -10 -60 -6 0 -10 27 -10 60 0
33 4 60 10 60 6 0 10 -27 10 -60z m270 50 c0 -5 -4 -10 -10 -10 -5 0 -10 5
-10 10 0 6 5 10 10 10 6 0 10 -4 10 -10z m460 0 c0 -5 -4 -10 -10 -10 -5 0
-10 5 -10 10 0 6 5 10 10 10 6 0 10 -4 10 -10z m-3770 -9 c0 -5 -9 -7 -20 -4
-26 7 -50 -13 -50 -42 0 -29 24 -49 50 -42 11 3 20 1 20 -4 0 -15 -58 -10 -74
7 -35 35 -6 94 46 94 15 0 28 -4 28 -9z m2168 -15 c2 -10 -1 -21 -6 -25 -7 -4
-3 -16 10 -31 14 -18 18 -20 14 -7 -3 10 -1 27 5 38 13 25 62 23 67 -3 3 -14
-3 -18 -27 -18 -24 0 -29 -4 -24 -16 3 -9 13 -14 24 -11 11 3 19 1 19 -4 0 -4
-20 -8 -44 -7 -36 0 -46 5 -55 24 -14 31 -31 31 -31 -1 0 -14 -4 -25 -10 -25
-5 0 -10 25 -10 56 l0 55 32 -3 c23 -2 34 -9 36 -22z m390 -28 c-3 -48 -5 -53
-28 -55 -14 -1 -18 0 -7 3 13 4 17 16 17 55 0 28 5 49 11 49 6 0 9 -21 7 -52z
m92 44 c0 -5 -10 -8 -21 -8 -32 1 -35 -22 -4 -36 38 -17 31 -52 -12 -56 -18
-2 -33 1 -33 6 0 5 11 7 25 4 18 -3 25 0 25 11 0 8 -11 22 -25 31 -27 18 -33
41 -12 49 20 9 57 8 57 -1z m430 -7 c0 -8 -4 -15 -10 -15 -5 0 -10 7 -10 15 0
8 5 15 10 15 6 0 10 -7 10 -15z m87 -37 c21 -55 21 -76 -1 -45 -16 21 -56 23
-56 2 0 -8 -6 -15 -14 -15 -11 0 -10 11 7 55 12 30 27 55 33 55 6 0 20 -24 31
-52z m273 44 c0 -5 -10 -8 -21 -8 -32 1 -35 -22 -4 -36 38 -17 31 -52 -12 -56
-18 -2 -33 1 -33 6 0 5 11 7 25 4 18 -3 25 0 25 11 0 8 -11 22 -25 31 -27 18
-33 41 -12 49 20 9 57 8 57 -1z m-3320 -12 c0 -14 38 -12 42 2 3 9 9 8 22 -5
10 -9 13 -17 7 -17 -15 0 -14 -57 2 -63 6 -3 2 -6 -10 -6 -20 -1 -23 4 -23 34
0 28 -4 35 -20 35 -15 0 -20 -7 -20 -29 0 -16 6 -32 13 -35 6 -3 3 -5 -8 -3
-14 2 -22 12 -25 37 -4 19 -4 41 -2 48 5 14 22 16 22 2z m846 -5 c9 -8 11 -15
5 -15 -15 0 -14 -57 2 -63 6 -3 2 -6 -10 -6 -20 -1 -23 4 -23 34 0 19 -4 35
-10 35 -5 0 -10 -7 -10 -15 0 -10 -10 -15 -30 -15 -23 0 -28 -4 -23 -16 4 -11
13 -14 32 -9 20 5 23 4 15 -5 -7 -6 -22 -10 -35 -8 -20 2 -24 9 -24 38 0 34 1
35 40 36 21 1 41 6 43 13 5 15 10 14 28 -4z m1490 0 c9 -8 11 -15 5 -15 -15 0
-14 -57 2 -64 6 -3 3 -5 -8 -3 -14 1 -22 12 -25 32 -4 24 -10 30 -30 30 -20 0
-25 -5 -25 -25 0 -21 4 -25 25 -22 18 2 22 0 13 -9 -15 -15 -43 -8 -57 14 -16
25 4 51 43 55 17 2 31 7 31 13 0 13 9 11 26 -6z m370 0 c9 -8 11 -15 5 -15
-15 0 -14 -57 2 -64 6 -3 3 -5 -8 -3 -14 2 -22 12 -25 37 -6 34 -3 60 7 60 2
0 11 -7 19 -15z m-2748 -27 c3 -14 -3 -18 -23 -18 -17 0 -25 -5 -22 -12 2 -7
14 -13 26 -12 13 0 18 -3 12 -9 -5 -5 -19 -7 -32 -5 -28 4 -38 40 -18 64 16
19 53 14 57 -8z m190 10 c20 -20 14 -28 -19 -28 -20 0 -29 -4 -26 -12 2 -7 14
-13 26 -12 11 0 21 -3 21 -8 0 -12 -44 -10 -58 4 -24 24 -7 68 28 68 9 0 21
-5 28 -12z m130 -31 c3 -38 3 -38 -30 -35 -42 4 -51 34 -14 44 14 3 23 10 20
16 -3 5 -12 7 -20 4 -8 -3 -14 -1 -14 5 0 6 12 9 28 7 23 -3 27 -8 30 -41z
m92 23 c14 -26 -3 -60 -30 -60 -13 0 -20 -7 -20 -20 0 -11 -4 -20 -10 -20 -6
0 -10 27 -10 60 0 60 0 60 30 60 19 0 33 -7 40 -20z m94 -2 c14 -23 -3 -52
-33 -56 -13 -2 -21 -11 -21 -23 0 -10 -4 -19 -10 -19 -6 0 -10 27 -10 61 l0
60 31 -3 c18 -2 37 -11 43 -20z m76 -18 c0 -22 -4 -40 -10 -40 -5 0 -10 18
-10 40 0 22 5 40 10 40 6 0 10 -18 10 -40z m128 -3 c3 -38 3 -38 -30 -35 -42
4 -51 34 -14 44 14 3 26 11 26 16 0 6 -9 8 -20 5 -11 -3 -20 -1 -20 5 0 5 12
8 28 6 23 -3 27 -8 30 -41z m270 21 c3 -14 -3 -18 -27 -18 -24 0 -29 -4 -24
-16 3 -9 13 -14 24 -11 11 3 19 1 19 -4 0 -5 -11 -9 -25 -9 -32 0 -50 32 -35
61 14 25 63 23 68 -3z m122 12 c0 -5 -10 -9 -22 -7 -18 2 -23 -3 -23 -23 0
-20 4 -25 23 -23 13 2 21 -1 17 -7 -8 -14 -38 -13 -53 2 -27 27 -6 68 35 68
13 0 23 -4 23 -10z m48 -1 c-11 -6 -18 -22 -18 -39 0 -17 -4 -30 -10 -30 -5 0
-10 18 -10 40 0 37 2 40 28 40 23 -1 24 -2 10 -11z m82 -4 c11 -14 14 -13 24
1 15 20 60 15 64 -8 3 -14 -3 -18 -27 -18 -24 0 -29 -4 -24 -16 3 -9 13 -14
24 -11 11 3 19 1 19 -4 0 -18 -49 -9 -60 11 -12 23 -75 30 -67 8 2 -7 14 -13
26 -12 11 0 21 -3 21 -8 0 -12 -44 -10 -58 4 -25 25 -7 68 29 68 9 0 22 -7 29
-15z m168 -7 c3 -14 -3 -18 -23 -18 -17 0 -25 -5 -22 -12 2 -7 14 -13 26 -12
13 0 18 -3 12 -9 -5 -5 -19 -7 -32 -5 -28 4 -38 40 -18 64 16 19 53 14 57 -8z
m142 -19 c0 -56 -14 -79 -50 -79 -17 0 -30 5 -30 11 0 6 7 8 16 5 9 -4 23 -1
32 6 13 11 11 14 -14 18 -21 4 -30 12 -32 28 -6 39 5 52 43 52 34 0 35 -1 35
-41z m46 25 c-9 -8 -16 -26 -16 -40 0 -13 -4 -24 -10 -24 -5 0 -10 18 -10 40
0 36 2 40 26 40 23 0 24 -1 10 -16z m164 6 c0 -5 -6 -7 -13 -4 -8 3 -20 -2
-27 -11 -10 -12 -10 -18 0 -30 7 -9 19 -14 27 -11 7 3 13 1 13 -5 0 -6 -12 -9
-27 -7 -29 3 -41 32 -29 64 6 16 56 20 56 4z m78 -2 c20 -20 14 -28 -19 -28
-20 0 -29 -4 -26 -12 2 -7 14 -13 26 -12 11 0 21 -3 21 -8 0 -12 -44 -10 -58
4 -24 24 -7 68 28 68 9 0 21 -5 28 -12z m130 -31 c3 -38 3 -38 -30 -35 -42 4
-51 34 -14 44 14 3 23 10 20 16 -3 5 -12 7 -20 4 -8 -3 -14 -1 -14 5 0 6 12 9
28 7 23 -3 27 -8 30 -41z m300 0 c3 -38 3 -38 -30 -35 -42 4 -51 34 -14 44 14
3 23 10 20 16 -3 5 -12 7 -20 4 -8 -3 -14 -1 -14 5 0 6 12 9 28 7 23 -3 27 -8
30 -41z m440 21 c3 -14 -3 -18 -27 -18 -24 0 -29 -4 -24 -16 4 -11 13 -14 32
-9 20 5 23 4 15 -5 -19 -20 -59 -8 -62 18 -2 13 -1 30 2 38 8 21 60 14 64 -8z
m180 -21 c3 -38 3 -38 -30 -35 -42 4 -51 34 -14 44 14 3 23 10 20 16 -3 5 -12
7 -20 4 -8 -3 -14 -1 -14 5 0 6 12 9 28 7 23 -3 27 -8 30 -41z m316 21 c14
-23 -3 -52 -33 -56 -13 -2 -21 -11 -21 -23 0 -10 -4 -19 -10 -19 -6 0 -10 27
-10 61 l0 60 31 -3 c18 -2 37 -11 43 -20z m36 -18 c0 -22 -4 -40 -10 -40 -5 0
-10 18 -10 40 0 22 5 40 10 40 6 0 10 -18 10 -40z m160 20 c0 -11 5 -20 10
-20 6 0 10 9 10 20 0 27 28 25 33 -2 l4 -23 8 23 c7 21 25 31 25 13 0 -19 -23
-71 -31 -71 -5 0 -13 10 -18 22 l-8 23 -7 -23 c-10 -29 -24 -28 -36 4 -13 33
-13 54 0 54 6 0 10 -9 10 -20z m168 -23 c3 -38 3 -38 -30 -35 -42 4 -51 34
-14 44 14 3 23 10 20 16 -3 5 -12 7 -20 4 -8 -3 -14 -1 -14 5 0 6 12 9 28 7
23 -3 27 -8 30 -41z m87 3 c0 -31 -3 -35 -27 -38 -20 -2 -28 -9 -28 -23 0 -10
-4 -19 -10 -19 -6 0 -10 26 -10 59 l0 59 38 -1 c35 -2 37 -3 37 -37z m45 0 c0
-22 -4 -40 -10 -40 -5 0 -10 18 -10 40 0 22 5 40 10 40 6 0 10 -18 10 -40z
m-2252 -312 c8 -8 12 -62 12 -178 0 -116 -4 -170 -12 -178 -17 -17 -319 -17
-336 0 -8 8 -12 62 -12 178 0 116 4 170 12 178 17 17 319 17 336 0z m500 0 c8
-8 12 -62 12 -178 0 -116 -4 -170 -12 -178 -17 -17 -379 -17 -396 0 -8 8 -12
62 -12 178 0 116 4 170 12 178 17 17 379 17 396 0z m480 0 c8 -8 12 -62 12
-178 0 -116 -4 -170 -12 -178 -17 -17 -359 -17 -376 0 -8 8 -12 62 -12 178 0
116 4 170 12 178 17 17 359 17 376 0z"/>
<path d="M9467 1034 c-8 -8 1 -24 14 -24 5 0 9 7 9 15 0 15 -12 20 -23 9z"/>
<path d="M9880 1080 c0 -23 25 -27 33 -6 7 16 -1 26 -20 26 -7 0 -13 -9 -13
-20z"/>
<path d="M9965 1060 c-3 -5 3 -10 15 -10 12 0 18 5 15 10 -3 6 -10 10 -15 10
-5 0 -12 -4 -15 -10z"/>
<path d="M10886 1065 c-9 -23 -8 -25 9 -25 17 0 19 9 6 28 -7 11 -10 10 -15
-3z"/>
<path d="M8630 1060 c0 -5 7 -10 15 -10 8 0 15 5 15 10 0 6 -7 10 -15 10 -8 0
-15 -4 -15 -10z"/>
<path d="M7795 1060 c-3 -5 1 -10 9 -10 9 0 16 5 16 10 0 6 -4 10 -9 10 -6 0
-13 -4 -16 -10z"/>
<path d="M7985 1060 c-3 -5 3 -10 15 -10 12 0 18 5 15 10 -3 6 -10 10 -15 10
-5 0 -12 -4 -15 -10z"/>
<path d="M8115 1029 c-4 -6 -5 -13 -2 -16 7 -7 27 6 27 18 0 12 -17 12 -25 -2z"/>
<path d="M8207 1063 c-13 -12 -7 -53 7 -53 17 0 28 24 20 45 -7 16 -17 19 -27
8z"/>
<path d="M8294 1056 c-8 -22 3 -49 19 -43 6 2 12 14 12 27 0 27 -22 39 -31 16z"/>
<path d="M8505 1029 c-4 -6 -5 -13 -2 -16 7 -7 27 6 27 18 0 12 -17 12 -25 -2z"/>
<path d="M8765 1060 c-3 -5 3 -10 15 -10 12 0 18 5 15 10 -3 6 -10 10 -15 10
-5 0 -12 -4 -15 -10z"/>
<path d="M9025 1060 c-3 -5 3 -10 15 -10 12 0 18 5 15 10 -3 6 -10 10 -15 10
-5 0 -12 -4 -15 -10z"/>
<path d="M9105 1060 c-3 -5 3 -10 15 -10 12 0 18 5 15 10 -3 6 -10 10 -15 10
-5 0 -12 -4 -15 -10z"/>
<path d="M9195 1060 c-3 -5 1 -10 9 -10 9 0 16 5 16 10 0 6 -4 10 -9 10 -6 0
-13 -4 -16 -10z"/>
<path d="M9316 1055 c-7 -20 3 -45 19 -45 16 0 29 35 20 50 -9 15 -32 12 -39
-5z"/>
<path d="M9625 1060 c-3 -5 3 -10 15 -10 12 0 18 5 15 10 -3 6 -10 10 -15 10
-5 0 -12 -4 -15 -10z"/>
<path d="M9755 1029 c-4 -6 -5 -13 -2 -16 7 -7 27 6 27 18 0 12 -17 12 -25 -2z"/>
<path d="M10055 1029 c-4 -6 -5 -13 -2 -16 7 -7 27 6 27 18 0 12 -17 12 -25
-2z"/>
<path d="M10490 1060 c0 -5 7 -10 15 -10 8 0 15 5 15 10 0 6 -7 10 -15 10 -8
0 -15 -4 -15 -10z"/>
<path d="M10675 1029 c-4 -6 -5 -13 -2 -16 7 -7 27 6 27 18 0 12 -17 12 -25
-2z"/>
<path d="M10984 1056 c-8 -22 3 -49 19 -43 6 2 12 14 12 27 0 27 -22 39 -31
16z"/>
<path d="M11355 1029 c-4 -6 -5 -13 -2 -16 7 -7 27 6 27 18 0 12 -17 12 -25
-2z"/>
<path d="M11435 1049 c-8 -23 7 -45 24 -35 6 4 11 18 11 32 0 30 -26 32 -35 3z"/>
<path d="M8945 717 c-3 -7 -4 -87 -3 -177 l3 -165 165 0 165 0 0 175 0 175
-163 3 c-127 2 -164 0 -167 -11z m215 -102 c0 -8 -7 -15 -15 -15 -8 0 -15 -7
-15 -15 0 -8 5 -15 10 -15 6 0 10 -7 10 -15 0 -8 -4 -15 -10 -15 -5 0 -10 -16
-10 -35 0 -28 -4 -35 -20 -35 -16 0 -20 7 -20 35 0 24 -5 35 -15 35 -8 0 -15
7 -15 15 0 8 7 15 15 15 8 0 15 8 15 18 0 10 5 23 12 30 17 17 58 15 58 -3z"/>
<path d="M9385 717 c-3 -7 -4 -87 -3 -177 l3 -165 195 0 195 0 0 175 0 175
-193 3 c-151 2 -194 0 -197 -11z m273 -112 c1 -1 -3 -17 -9 -36 -23 -67 -77
-101 -130 -80 -17 7 -19 10 -6 10 20 1 21 5 6 32 -14 26 -20 60 -13 71 3 4 15
1 27 -7 27 -19 47 -19 47 -1 0 18 19 25 50 19 14 -3 26 -7 28 -8z"/>
<path d="M9885 717 c-3 -7 -4 -87 -3 -177 l3 -165 185 0 185 0 0 175 0 175
-183 3 c-143 2 -184 0 -187 -11z m239 -103 c12 -5 16 -20 16 -64 0 -65 -5 -70
-74 -70 -54 0 -66 13 -66 70 0 25 5 51 12 58 13 13 85 16 112 6z"/>
<path d="M10038 603 c-14 -3 -18 -15 -18 -53 0 -41 3 -49 23 -54 36 -9 55 -7
71 10 21 20 21 74 1 74 -8 0 -15 7 -15 15 0 15 -25 18 -62 8z m62 -28 c15 -18
10 -45 -12 -59 -35 -22 -74 27 -48 59 16 19 44 19 60 0z"/>
<path d="M10054 559 c-10 -17 13 -36 27 -22 12 12 4 33 -11 33 -5 0 -12 -5
-16 -11z"/>
</g>
</svg>
